<svg width="32" height="18" viewBox="0 0 32 18" fill="none" xmlns="http://www.w3.org/2000/svg">
<rect width="18.1139" height="3.10698" rx="1.55349" transform="matrix(0.350665 -0.936501 0.942738 0.333533 10.5981 16.9637)" fill="#D00000"/>
<rect width="10.5247" height="3.05191" rx="1.52596" transform="matrix(0.872058 -0.489403 0.510672 0.859775 0 8.4837)" fill="#D00000"/>
<rect width="10.5247" height="3.05191" rx="1.52596" transform="matrix(0.872058 0.489403 -0.510672 0.859775 1.55859 7.27179)" fill="#D00000"/>
<ellipse cx="1.55835" cy="9.24119" rx="1.24682" ry="1.36345" fill="#D00000"/>
<rect width="11.5173" height="3.15357" rx="1.57679" transform="matrix(-0.894421 -0.447225 -0.554688 0.832058 32 8.4837)" fill="#D00000"/>
<rect width="11.5173" height="3.15357" rx="1.57679" transform="matrix(-0.894421 0.447225 0.554688 0.832058 30.251 7.27179)" fill="#D00000"/>
<ellipse cx="1.3994" cy="1.36345" rx="1.3994" ry="1.36345" transform="matrix(-1 0 0 1 31.6499 7.87775)" fill="#D00000"/>
</svg>
