<svg width="120" height="120" fill="none" xmlns="http://www.w3.org/2000/svg"><path d="M90 5H30c-5.523 0-10 4.477-10 10s4.477 10 10 10h60c5.523 0 10-4.477 10-10S95.523 5 90 5ZM90 95H30c-5.523 0-10 4.477-10 10s4.477 10 10 10h60c5.523 0 10-4.477 10-10s-4.477-10-10-10Z" fill="#663C09"/><path d="M30 25h60v5a30 30 0 1 1-60 0v-5Z" fill="url(#a)"/><path d="M60 60a30 30 0 0 1 30 30v5H30v-5a30 30 0 0 1 30-30Z" fill="url(#b)"/><defs><linearGradient id="a" x1="60" y1="24.15" x2="60" y2="92.235" gradientUnits="userSpaceOnUse"><stop stop-color="#A6F9FF"/><stop offset="1" stop-color="#3ED0F7"/></linearGradient><linearGradient id="b" x1="60" y1="24.15" x2="60" y2="92.235" gradientUnits="userSpaceOnUse"><stop stop-color="#A6F9FF"/><stop offset="1" stop-color="#3ED0F7"/></linearGradient></defs></svg>