<svg width="20" height="20" viewBox="0 0 20 20" fill="none" xmlns="http://www.w3.org/2000/svg">
<g clip-path="url(#clip0_611_195)">
<path d="M18.7502 11.25C18.5861 11.2499 18.4235 11.2822 18.2718 11.345C18.1201 11.4077 17.9822 11.4998 17.8662 11.6159C17.7501 11.732 17.658 11.8698 17.5952 12.0215C17.5324 12.1732 17.5002 12.3358 17.5002 12.5V16.25H2.50024V12.5C2.50024 12.1685 2.36855 11.8505 2.13413 11.6161C1.89971 11.3817 1.58176 11.25 1.25024 11.25C0.918724 11.25 0.600781 11.3817 0.366361 11.6161C0.13194 11.8505 0.000244342 12.1685 0.000244342 12.5V17.5C0.000151228 17.6642 0.0324199 17.8268 0.0952053 17.9785C0.157991 18.1302 0.250061 18.268 0.366153 18.3841C0.482245 18.5002 0.620081 18.5923 0.77178 18.655C0.923479 18.7178 1.08607 18.7501 1.25024 18.75H18.7502C18.9144 18.7501 19.077 18.7178 19.2287 18.655C19.3804 18.5923 19.5182 18.5002 19.6343 18.3841C19.7504 18.268 19.8425 18.1302 19.9053 17.9785C19.9681 17.8268 20.0003 17.6642 20.0002 17.5V12.5C20.0003 12.3358 19.9681 12.1732 19.9053 12.0215C19.8425 11.8698 19.7504 11.732 19.6343 11.6159C19.5182 11.4998 19.3804 11.4077 19.2287 11.345C19.077 11.2822 18.9144 11.2499 18.7502 11.25Z" fill="#3A0000"/>
<path d="M9.11655 13.3838C9.23259 13.4999 9.37037 13.592 9.52202 13.6548C9.67366 13.7177 9.8362 13.75 10.0003 13.75C10.1645 13.75 10.327 13.7177 10.4787 13.6548C10.6303 13.592 10.7681 13.4999 10.8841 13.3838L14.6341 9.63379C14.8675 9.39917 14.9982 9.08161 14.9978 8.75072C14.9973 8.41984 14.8657 8.10264 14.6317 7.86866C14.3977 7.63469 14.0805 7.50305 13.7496 7.50259C13.4187 7.50213 13.1012 7.63289 12.8666 7.86621L11.2503 9.48242V2.5C11.2503 2.16848 11.1186 1.85054 10.8842 1.61612C10.6498 1.3817 10.3319 1.25 10.0003 1.25C9.66882 1.25 9.35088 1.3817 9.11646 1.61612C8.88204 1.85054 8.75035 2.16848 8.75035 2.5V9.48242L7.13414 7.86621C6.89952 7.63289 6.58195 7.50213 6.25107 7.50259C5.92018 7.50305 5.60298 7.63469 5.36901 7.86866C5.13504 8.10264 5.00339 8.41984 5.00293 8.75072C5.00247 9.08161 5.13323 9.39917 5.36655 9.63379L9.11655 13.3838Z" fill="#3A0000"/>
</g>
<defs>
<clipPath id="clip0_611_195">
<rect width="20" height="20" fill="white"/>
</clipPath>
</defs>
</svg>
