<svg width="24" height="24" fill="none" xmlns="http://www.w3.org/2000/svg"><path d="M21 9.75a.75.75 0 0 0-.75.75v6a.75.75 0 0 1-.75.75h-15a.75.75 0 0 1-.75-.75v-6a.75.75 0 1 0-1.5 0v6a2.25 2.25 0 0 0 2.25 2.25h15a2.25 2.25 0 0 0 2.25-2.25v-6a.75.75 0 0 0-.75-.75Z" fill="#A3A3A3"/><path d="M11.55 14.1a.75.75 0 0 0 .9 0l8.858-6.645a.75.75 0 0 0 .224-.923 2.296 2.296 0 0 0-.442-.622 2.25 2.25 0 0 0-1.59-.66h-15a2.25 2.25 0 0 0-1.59.66c-.181.181-.33.392-.443.622a.75.75 0 0 0 .225.923L11.55 14.1ZM4.5 6.75h15a.675.675 0 0 1 .21 0L12 12.563 4.29 6.75a.675.675 0 0 1 .21 0Z" fill="#A3A3A3"/></svg>