<svg width="120" height="120" fill="none" xmlns="http://www.w3.org/2000/svg"><path d="M43.333 110C52.533 110 60 102.533 60 93.333V76.667H43.333c-9.2 0-16.666 7.466-16.666 16.666S34.133 110 43.333 110Z" fill="#0ACF83"/><path d="M26.667 60c0-9.2 7.466-16.667 16.666-16.667H60v33.334H43.333c-9.2 0-16.666-7.467-16.666-16.667Z" fill="#A259FF"/><path d="M26.667 26.667c0-9.2 7.466-16.667 16.666-16.667H60v33.333H43.333c-9.2 0-16.666-7.466-16.666-16.666Z" fill="#F24E1E"/><path d="M60 10h16.667c9.2 0 16.666 7.467 16.666 16.667 0 9.2-7.466 16.666-16.666 16.666H60V10Z" fill="#FF7262"/><path d="M93.333 60c0 9.2-7.466 16.667-16.666 16.667S60 69.2 60 60c0-9.2 7.467-16.667 16.667-16.667 9.2 0 16.666 7.467 16.666 16.667Z" fill="#1ABCFE"/></svg>