<svg width="120" height="120" viewBox="0 0 120 120" fill="none" xmlns="http://www.w3.org/2000/svg">
<g clip-path="url(#clip0_754_18)">
<path d="M0 7.5C0 5.51088 0.790176 3.60322 2.1967 2.1967C3.60322 0.790176 5.51088 0 7.5 0L45 0C46.9891 0 48.8968 0.790176 50.3033 2.1967C51.7098 3.60322 52.5 5.51088 52.5 7.5V112.5C52.5 114.489 51.7098 116.397 50.3033 117.803C48.8968 119.21 46.9891 120 45 120H7.5C5.51088 120 3.60322 119.21 2.1967 117.803C0.790176 116.397 0 114.489 0 112.5V7.5ZM67.5 7.5C67.5 5.51088 68.2902 3.60322 69.6967 2.1967C71.1032 0.790176 73.0109 0 75 0L112.5 0C114.489 0 116.397 0.790176 117.803 2.1967C119.21 3.60322 120 5.51088 120 7.5V45C120 46.9891 119.21 48.8968 117.803 50.3033C116.397 51.7098 114.489 52.5 112.5 52.5H75C73.0109 52.5 71.1032 51.7098 69.6967 50.3033C68.2902 48.8968 67.5 46.9891 67.5 45V7.5ZM67.5 75C67.5 73.0109 68.2902 71.1032 69.6967 69.6967C71.1032 68.2902 73.0109 67.5 75 67.5H112.5C114.489 67.5 116.397 68.2902 117.803 69.6967C119.21 71.1032 120 73.0109 120 75V112.5C120 114.489 119.21 116.397 117.803 117.803C116.397 119.21 114.489 120 112.5 120H75C73.0109 120 71.1032 119.21 69.6967 117.803C68.2902 116.397 67.5 114.489 67.5 112.5V75Z" fill="#197EA6"/>
</g>
<defs>
<clipPath id="clip0_754_18">
<rect width="120" height="120" fill="white"/>
</clipPath>
</defs>
</svg>
