<svg width="120" height="120" fill="none" xmlns="http://www.w3.org/2000/svg"><path d="M7.5 7.5v105h105V7.5H7.5Zm56.25 81.563c0 10.22-6.038 15.203-14.777 15.203-7.894 0-12.476-4.087-14.801-9.02l8.034-4.864c1.55 2.75 2.726 5.074 6.108 5.074 2.813 0 5.123-1.268 5.123-6.201V56.25H63.75v32.813Zm23.285 14.969c-9.162 0-15.082-4.134-17.972-9.844l8.046-4.657c2.11 3.455 4.864 5.756 9.727 5.756 4.087 0 6.462-1.809 6.462-4.628 0-3.382-2.445-4.58-6.957-6.563l-2.465-1.06c-7.12-3.027-11.84-6.834-11.84-14.87 0-7.4 5.636-12.804 14.446-12.804 6.274 0 10.781 1.95 14.027 7.66l-7.697 4.947c-1.692-3.03-3.515-4.219-6.342-4.219-2.89 0-4.722 1.833-4.722 4.219 0 2.96 1.832 4.158 6.06 5.99l2.466 1.057c8.388 3.596 13.111 7.266 13.111 15.507.002 8.883-6.975 13.509-16.35 13.509Z" fill="#FFD600"/></svg>