<svg width="120" height="120" fill="none" xmlns="http://www.w3.org/2000/svg"><path d="m118.288 20.398-4.398-.825a2.39 2.39 0 0 1-1.824-1.537c-.2-.57-.431-1.128-.69-1.672a2.384 2.384 0 0 1 .204-2.374l2.525-3.692a1.553 1.553 0 0 0-.184-1.978l-2.683-2.683a1.557 1.557 0 0 0-1.979-.184l-3.692 2.525a2.392 2.392 0 0 1-2.374.204c-.545-.26-1.103-.49-1.672-.69a2.387 2.387 0 0 1-1.537-1.824l-.825-4.4A1.556 1.556 0 0 0 97.629 0h-3.795a1.556 1.556 0 0 0-1.53 1.269l-.824 4.398a2.39 2.39 0 0 1-1.538 1.824c-.569.201-1.127.432-1.671.69a2.39 2.39 0 0 1-2.374-.203l-3.692-2.525a1.556 1.556 0 0 0-1.979.184L77.542 8.32a1.555 1.555 0 0 0-.183 1.978l2.525 3.692a2.39 2.39 0 0 1 .204 2.374c-.26.545-.49 1.103-.69 1.672a2.393 2.393 0 0 1-1.825 1.537l-4.398.825a1.556 1.556 0 0 0-1.269 1.53v3.795a1.557 1.557 0 0 0 1.269 1.53l4.398.824a2.392 2.392 0 0 1 1.824 1.538c.2.569.431 1.127.69 1.672a2.39 2.39 0 0 1-.203 2.374l-2.525 3.692a1.555 1.555 0 0 0 .183 1.978l2.684 2.683a1.556 1.556 0 0 0 1.979.184l3.692-2.525a2.39 2.39 0 0 1 2.374-.204c.544.26 1.102.49 1.671.69a2.39 2.39 0 0 1 1.538 1.825l.825 4.398a1.556 1.556 0 0 0 1.529 1.269h3.795a1.556 1.556 0 0 0 1.53-1.27l.825-4.397a2.392 2.392 0 0 1 1.537-1.825c.569-.2 1.127-.43 1.672-.69a2.39 2.39 0 0 1 2.374.204l3.692 2.525a1.554 1.554 0 0 0 1.979-.184l2.683-2.683a1.55 1.55 0 0 0 .184-1.979l-2.525-3.692a2.39 2.39 0 0 1-.204-2.374c.259-.544.49-1.102.69-1.672a2.394 2.394 0 0 1 1.824-1.537l4.398-.825a1.557 1.557 0 0 0 1.27-1.53v-3.795a1.555 1.555 0 0 0-1.27-1.529ZM95.732 32.656a8.83 8.83 0 1 1 0-17.662 8.83 8.83 0 0 1 0 17.662Z" fill="#A3A3A3"/><path d="M110.137 47.158a6.212 6.212 0 0 1-3.525-1.09l-2.327-1.592-.52 2.769a6.245 6.245 0 0 1-6.136 5.094h-3.795a6.245 6.245 0 0 1-6.136-5.092l-.52-2.771-2.327 1.592a6.244 6.244 0 0 1-7.94-.739l-2.683-2.683a6.245 6.245 0 0 1-.739-7.94l1.592-2.327-2.77-.52a6.246 6.246 0 0 1-5.093-6.136v-3.766a23.238 23.238 0 0 0-7.373 4.644 15.23 15.23 0 0 0-12.208 1.574 16.672 16.672 0 0 0-6.852 9.118 16.755 16.755 0 0 0-6.612-1.361 16.004 16.004 0 0 0-13.03 6.21 14.685 14.685 0 0 0-2.697 9.11 17.124 17.124 0 0 1 6.697 2.67c.095.064.186.135.273.212a13.609 13.609 0 0 0 18.067-.304 2.531 2.531 0 0 1 3.266 3.867 18.892 18.892 0 0 1-12.369 4.845 19.271 19.271 0 0 1-12.202-4.513 12.097 12.097 0 0 0-6.45-1.974 14.762 14.762 0 0 0-10.124 10.17A19.18 19.18 0 0 0 5 71.072a16.6 16.6 0 0 0 14.805 16.483 14.426 14.426 0 0 0 22.082 10.392 14.839 14.839 0 0 1-1.614-11.242 2.531 2.531 0 1 1 4.882 1.342 10.37 10.37 0 0 0 2.443 9.323 18.936 18.936 0 0 0 12.756 4.903h6.942a3.979 3.979 0 0 1 3.384 1.913l5.95 9.66a3.94 3.94 0 0 0 3.379 1.884h.009l7.756-.024a3.959 3.959 0 0 0 3.331-1.834 3.97 3.97 0 0 0 .256-3.795l-2.926-6.332a3.15 3.15 0 0 1 1.391-4.033c.46-.25.975-.38 1.499-.38h.983a20.355 20.355 0 0 0 20.481-18.343 20.102 20.102 0 0 0-1.911-10.241 14.7 14.7 0 0 0-4.397-2.091 11.42 11.42 0 0 0-9.216.937c-3.067 1.917-4.362 5.024-3.96 9.499a2.533 2.533 0 0 1-4.232 2.093 2.53 2.53 0 0 1-.811-1.642c-.722-8.056 3.037-12.193 6.318-14.243a16.445 16.445 0 0 1 13.318-1.504 20.114 20.114 0 0 1 4.293 1.805 18.618 18.618 0 0 0 1.793-7.905 25.657 25.657 0 0 0-2.18-10.792 6.234 6.234 0 0 1-1.667.252Z" fill="#F975C4"/></svg>