<svg width="560" height="442" viewBox="0 0 560 442" fill="none" xmlns="http://www.w3.org/2000/svg">
<path d="M253.441 344.243C243.454 346.067 196.617 355.944 206.042 379.819C207.402 383.13 209.568 386.049 212.342 388.312C224.101 398.176 266.242 422.322 388.319 409.153C395.233 408.409 402.174 407.949 409.127 407.82C441.294 407.225 542.374 401.779 539.787 357.018C539.787 357.018 538.448 331.96 477.885 339.638L431.824 336.772C431.824 336.772 327.976 328.764 258.021 343.312C256.514 343.654 254.981 343.965 253.441 344.243Z" fill="#E80505"/>
<path opacity="0.7" d="M253.441 344.243C243.454 346.067 196.617 355.944 206.042 379.819C207.402 383.13 209.568 386.049 212.342 388.312C224.101 398.176 266.242 422.322 388.319 409.153C395.233 408.409 402.174 407.949 409.127 407.82C441.294 407.225 542.374 401.779 539.787 357.018C539.787 357.018 538.448 331.96 477.885 339.638L431.824 336.772C431.824 336.772 327.976 328.764 258.021 343.312C256.514 343.654 254.981 343.965 253.441 344.243Z" fill="#FF2626"/>
<path d="M325.408 337.84C115.951 357.562 86.6171 232.62 86.6171 232.62C70.5822 189.198 84.3856 160.821 104.508 133.862C124.343 107.392 150.547 86.3651 180.686 72.7361C229.133 50.705 262.419 46.216 262.419 46.216C262.419 46.216 402.704 10.1423 475.834 118.823C475.834 118.823 545.692 206.501 500.116 261.863C500.116 261.863 477.387 292.484 417.561 315.479L372.736 328.713C357.29 333.268 341.44 336.324 325.408 337.84Z" fill="#E80505"/>
<path opacity="0.7" d="M325.408 337.84C115.951 357.562 86.6171 232.62 86.6171 232.62C70.5822 189.198 84.3856 160.821 104.508 133.862C124.343 107.392 150.547 86.3651 180.686 72.7361C229.133 50.705 262.419 46.216 262.419 46.216C262.419 46.216 402.704 10.1423 475.834 118.823C475.834 118.823 545.692 206.501 500.116 261.863C500.116 261.863 477.387 292.484 417.561 315.479L372.736 328.713C357.29 333.268 341.44 336.324 325.408 337.84Z" fill="#FF2626"/>
<path d="M367.316 133.545H67.7039V359.211H367.316V133.545Z" fill="white"/>
<path d="M367.316 133.545H70.1357V156.455H367.316V133.545Z" fill="#E6E6E6"/>
<path opacity="0.29" d="M150.679 167.568H83.325V234.922H150.679V167.568Z" fill="#E80505"/>
<path d="M465.221 239.082H461.747V263.383H465.221V239.082Z" fill="#999999"/>
<path d="M430.071 286.016V358.629H435.013L437.859 282.393L430.071 286.016Z" fill="#CCCCCC"/>
<path d="M460.355 271.721V347.4H465.304L467.995 268.247L460.355 271.721Z" fill="#CCCCCC"/>
<path d="M432.231 280.789L474.243 261.999L455.278 258.706L433.383 249.314L432.231 280.789Z" fill="#CCCCCC"/>
<path d="M424.411 288.648L474.217 265.472V261.999L432.231 280.789C432.231 280.789 427.348 286.132 424.411 288.648Z" fill="#B3B3B3"/>
<path d="M448.551 175.899H474.774C475.554 175.899 476.303 176.209 476.855 176.761C477.407 177.313 477.717 178.062 477.717 178.842V222.419H448.551V175.899Z" fill="#999999"/>
<path d="M366.973 28.6935H156.236V118.959H366.973V28.6935Z" fill="#E80505"/>
<path opacity="0.3" d="M235.395 53.6934H170.123V96.0478H235.395V53.6934Z" fill="white"/>
<g opacity="0.3">
<path d="M192.341 85.1164C192.25 85.1162 192.159 85.0977 192.075 85.0622C191.99 85.0267 191.914 84.9748 191.85 84.9095L182.283 75.3622C182.157 75.232 182.087 75.0581 182.087 74.8771C182.087 74.6961 182.157 74.5222 182.283 74.392L191.85 64.3273C191.976 64.1935 192.15 64.1153 192.334 64.1098C192.517 64.1043 192.696 64.1721 192.83 64.2982C192.963 64.4243 193.042 64.5984 193.047 64.7822C193.053 64.9659 192.985 65.1443 192.859 65.2782L183.758 74.8577L192.846 83.9133C192.911 83.9777 192.962 84.0543 192.997 84.1386C193.033 84.223 193.051 84.3135 193.051 84.4049C193.051 84.4964 193.033 84.5869 192.997 84.6712C192.962 84.7556 192.911 84.8322 192.846 84.8965C192.781 84.9651 192.703 85.02 192.616 85.0578C192.529 85.0955 192.436 85.1155 192.341 85.1164Z" fill="white"/>
</g>
<g opacity="0.3">
<path d="M212.633 85.8085C212.542 85.8094 212.451 85.7922 212.367 85.7578C212.282 85.7233 212.206 85.6724 212.141 85.608C212.076 85.5436 212.025 85.4671 211.99 85.3827C211.954 85.2983 211.936 85.2078 211.936 85.1164C211.936 85.025 211.954 84.9345 211.99 84.8501C212.025 84.7657 212.076 84.6892 212.141 84.6248L221.197 75.5692L212.161 65.9767C212.087 65.9127 212.028 65.8342 211.987 65.746C211.946 65.6579 211.923 65.5621 211.921 65.4648C211.919 65.3675 211.938 65.2709 211.975 65.1811C212.013 65.0913 212.068 65.0103 212.139 64.9434C212.21 64.8764 212.293 64.8249 212.385 64.7922C212.477 64.7595 212.574 64.7463 212.671 64.7535C212.768 64.7606 212.863 64.788 212.948 64.8338C213.034 64.8796 213.11 64.9428 213.17 65.0194L222.73 75.0841C222.794 75.1477 222.844 75.2234 222.879 75.3066C222.913 75.3898 222.931 75.4791 222.931 75.5692C222.931 75.6593 222.913 75.7485 222.879 75.8318C222.844 75.915 222.794 75.9906 222.73 76.0543L213.17 85.608C213.1 85.6778 213.016 85.7318 212.923 85.7664C212.83 85.801 212.731 85.8154 212.633 85.8085Z" fill="white"/>
</g>
<g opacity="0.3">
<path d="M197.646 85.1164C197.525 85.1201 197.406 85.0924 197.299 85.0361C197.192 84.9798 197.102 84.8968 197.036 84.7951C196.971 84.6935 196.934 84.5767 196.927 84.4562C196.92 84.3356 196.945 84.2155 196.999 84.1073L206.275 65.8796C206.317 65.7981 206.375 65.7257 206.446 65.6666C206.516 65.6075 206.597 65.5629 206.685 65.5353C206.773 65.5077 206.865 65.4976 206.957 65.5056C207.048 65.5136 207.137 65.5396 207.219 65.5821C207.3 65.6246 207.373 65.6827 207.432 65.7531C207.491 65.8236 207.536 65.905 207.563 65.9927C207.591 66.0804 207.601 66.1726 207.593 66.2642C207.585 66.3558 207.559 66.4449 207.516 66.5265L198.26 84.7348C198.203 84.8489 198.115 84.9449 198.007 85.0122C197.898 85.0796 197.773 85.1156 197.646 85.1164Z" fill="white"/>
</g>
<path d="M339.191 77.3026H294.062C293.889 77.2859 293.729 77.2055 293.612 77.0769C293.495 76.9483 293.431 76.7809 293.431 76.6073C293.431 76.4336 293.495 76.2662 293.612 76.1376C293.729 76.0091 293.889 75.9286 294.062 75.9119H339.191C339.288 75.9026 339.386 75.9136 339.479 75.9443C339.571 75.9749 339.656 76.0246 339.728 76.0901C339.8 76.1556 339.858 76.2354 339.897 76.3245C339.937 76.4135 339.957 76.5099 339.957 76.6073C339.957 76.7047 339.937 76.801 339.897 76.8901C339.858 76.9791 339.8 77.059 339.728 77.1244C339.656 77.1899 339.571 77.2396 339.479 77.2703C339.386 77.301 339.288 77.312 339.191 77.3026Z" fill="white"/>
<path d="M349.612 85.634H294.062C293.889 85.6173 293.729 85.5368 293.612 85.4083C293.495 85.2797 293.431 85.1123 293.431 84.9386C293.431 84.765 293.495 84.5976 293.612 84.469C293.729 84.3404 293.889 84.26 294.062 84.2433H349.612C349.785 84.26 349.945 84.3404 350.062 84.469C350.179 84.5976 350.243 84.765 350.243 84.9386C350.243 85.1123 350.179 85.2797 350.062 85.4083C349.945 85.5368 349.785 85.6173 349.612 85.634Z" fill="white"/>
<path opacity="0.3" d="M335.382 99.5212H302.73C300.05 99.5212 297.878 101.693 297.878 104.372V105.084C297.878 107.763 300.05 109.935 302.73 109.935H335.382C338.061 109.935 340.233 107.763 340.233 105.084V104.372C340.233 101.693 338.061 99.5212 335.382 99.5212Z" fill="white"/>
<path opacity="0.3" d="M366.967 28.6935V118.959H156.236C156.236 118.959 191.65 80.731 249.709 71.0932C252.361 70.6534 255.039 70.3688 257.717 70.1877C275.815 68.9522 360.796 61.5654 366.967 28.6935Z" fill="white"/>
<path d="M141.656 82.8524H20.1423V221.028H141.656V82.8524Z" fill="#E80505"/>
<path opacity="0.3" d="M141.656 82.8524H20.1423V105.071H141.656V82.8524Z" fill="white"/>
<path d="M67.361 112.018H29.8643V149.515H67.361V112.018Z" fill="#2F2E41"/>
<path opacity="0.3" d="M106.585 96.397C107.928 96.397 109.017 95.3081 109.017 93.9649C109.017 92.6217 107.928 91.5328 106.585 91.5328C105.241 91.5328 104.153 92.6217 104.153 93.9649C104.153 95.3081 105.241 96.397 106.585 96.397Z" fill="white"/>
<path opacity="0.3" d="M119.088 96.397C120.431 96.397 121.52 95.3081 121.52 93.9649C121.52 92.6217 120.431 91.5328 119.088 91.5328C117.745 91.5328 116.656 92.6217 116.656 93.9649C116.656 95.3081 117.745 96.397 119.088 96.397Z" fill="white"/>
<path opacity="0.3" d="M131.585 96.397C132.928 96.397 134.017 95.3081 134.017 93.9649C134.017 92.6217 132.928 91.5328 131.585 91.5328C130.242 91.5328 129.153 92.6217 129.153 93.9649C129.153 95.3081 130.242 96.397 131.585 96.397Z" fill="white"/>
<path d="M110.408 124.515H75.6794C75.5885 124.515 75.4985 124.497 75.4146 124.462C75.3306 124.427 75.2543 124.376 75.19 124.312C75.1257 124.248 75.0748 124.172 75.04 124.088C75.0052 124.004 74.9873 123.914 74.9873 123.823C74.9873 123.732 75.0052 123.642 75.04 123.558C75.0748 123.474 75.1257 123.398 75.19 123.333C75.2543 123.269 75.3306 123.218 75.4146 123.183C75.4985 123.149 75.5885 123.131 75.6794 123.131H110.395C110.578 123.131 110.754 123.204 110.884 123.333C111.014 123.463 111.087 123.639 111.087 123.823C111.087 124.006 111.014 124.182 110.884 124.312C110.754 124.442 110.578 124.515 110.395 124.515H110.408Z" fill="white"/>
<path d="M120.472 132.846H76.0351C75.8516 132.846 75.6755 132.773 75.5457 132.643C75.4159 132.513 75.343 132.337 75.343 132.154C75.343 131.97 75.4159 131.794 75.5457 131.664C75.6755 131.535 75.8516 131.462 76.0351 131.462H120.472C120.563 131.462 120.653 131.48 120.737 131.514C120.821 131.549 120.898 131.6 120.962 131.664C121.026 131.729 121.077 131.805 121.112 131.889C121.147 131.973 121.164 132.063 121.164 132.154C121.164 132.245 121.147 132.335 121.112 132.419C121.077 132.503 121.026 132.579 120.962 132.643C120.898 132.708 120.821 132.759 120.737 132.793C120.653 132.828 120.563 132.846 120.472 132.846Z" fill="white"/>
<path d="M131.585 141.184H76.035C75.8622 141.167 75.7017 141.087 75.585 140.958C75.4682 140.829 75.4036 140.662 75.4036 140.488C75.4036 140.315 75.4682 140.147 75.585 140.019C75.7017 139.89 75.8622 139.81 76.035 139.793H131.585C131.758 139.81 131.918 139.89 132.035 140.019C132.152 140.147 132.216 140.315 132.216 140.488C132.216 140.662 132.152 140.829 132.035 140.958C131.918 141.087 131.758 141.167 131.585 141.184Z" fill="white"/>
<path d="M108.668 185.64H54.515C54.418 185.65 54.3202 185.639 54.2278 185.608C54.1353 185.577 54.0503 185.528 53.9782 185.462C53.9061 185.397 53.8485 185.317 53.8091 185.228C53.7696 185.139 53.7493 185.043 53.7493 184.945C53.7493 184.848 53.7696 184.751 53.8091 184.662C53.8485 184.573 53.9061 184.493 53.9782 184.428C54.0503 184.363 54.1353 184.313 54.2278 184.282C54.3202 184.251 54.418 184.24 54.515 184.25H108.668C108.84 184.267 109.001 184.347 109.118 184.476C109.234 184.604 109.299 184.771 109.299 184.945C109.299 185.119 109.234 185.286 109.118 185.415C109.001 185.543 108.84 185.624 108.668 185.64Z" fill="white"/>
<path d="M126.029 193.952H37.1541C37.0572 193.962 36.9594 193.951 36.8669 193.92C36.7745 193.889 36.6895 193.84 36.6174 193.774C36.5453 193.709 36.4876 193.629 36.4482 193.54C36.4088 193.451 36.3884 193.354 36.3884 193.257C36.3884 193.16 36.4088 193.063 36.4482 192.974C36.4876 192.885 36.5453 192.805 36.6174 192.74C36.6895 192.674 36.7745 192.625 36.8669 192.594C36.9594 192.563 37.0572 192.552 37.1541 192.562H126.029C126.126 192.552 126.223 192.563 126.316 192.594C126.408 192.625 126.493 192.674 126.565 192.74C126.638 192.805 126.695 192.885 126.735 192.974C126.774 193.063 126.794 193.16 126.794 193.257C126.794 193.354 126.774 193.451 126.735 193.54C126.695 193.629 126.638 193.709 126.565 193.774C126.493 193.84 126.408 193.889 126.316 193.92C126.223 193.951 126.126 193.962 126.029 193.952Z" fill="white"/>
<path d="M109.017 202.283H54.1656C54.0687 202.293 53.9708 202.282 53.8784 202.251C53.786 202.22 53.701 202.171 53.6288 202.105C53.5567 202.04 53.4991 201.96 53.4597 201.871C53.4203 201.782 53.3999 201.685 53.3999 201.588C53.3999 201.49 53.4203 201.394 53.4597 201.305C53.4991 201.216 53.5567 201.136 53.6288 201.071C53.701 201.005 53.786 200.956 53.8784 200.925C53.9708 200.894 54.0687 200.883 54.1656 200.893H109.017C109.114 200.883 109.212 200.894 109.304 200.925C109.397 200.956 109.482 201.005 109.554 201.071C109.626 201.136 109.683 201.216 109.723 201.305C109.762 201.394 109.783 201.49 109.783 201.588C109.783 201.685 109.762 201.782 109.723 201.871C109.683 201.96 109.626 202.04 109.554 202.105C109.482 202.171 109.397 202.22 109.304 202.251C109.212 202.282 109.114 202.293 109.017 202.283Z" fill="white"/>
<path opacity="0.3" d="M104.851 160.621H54.1655V171.035H104.851V160.621Z" fill="white"/>
<path opacity="0.29" d="M209.004 167.568H165.958V178.68H209.004V167.568Z" fill="#E80505"/>
<path d="M199.728 190.032H165.957C165.86 190.042 165.763 190.031 165.67 190C165.578 189.969 165.493 189.92 165.421 189.854C165.348 189.789 165.291 189.709 165.251 189.62C165.212 189.531 165.192 189.435 165.192 189.337C165.192 189.24 165.212 189.143 165.251 189.054C165.291 188.965 165.348 188.885 165.421 188.82C165.493 188.754 165.578 188.705 165.67 188.674C165.763 188.643 165.86 188.632 165.957 188.642H199.728C199.825 188.632 199.923 188.643 200.016 188.674C200.108 188.705 200.193 188.754 200.265 188.82C200.337 188.885 200.395 188.965 200.434 189.054C200.474 189.143 200.494 189.24 200.494 189.337C200.494 189.435 200.474 189.531 200.434 189.62C200.395 189.709 200.337 189.789 200.265 189.854C200.193 189.92 200.108 189.969 200.016 190C199.923 190.031 199.825 190.042 199.728 190.032Z" fill="#E6E6E6"/>
<path d="M210.737 198.364H165.957C165.774 198.364 165.598 198.291 165.468 198.161C165.338 198.031 165.265 197.855 165.265 197.671C165.265 197.488 165.338 197.312 165.468 197.182C165.598 197.052 165.774 196.979 165.957 196.979H210.737C210.921 196.979 211.097 197.052 211.227 197.182C211.357 197.312 211.429 197.488 211.429 197.671C211.429 197.855 211.357 198.031 211.227 198.161C211.097 198.291 210.921 198.364 210.737 198.364Z" fill="#E6E6E6"/>
<path d="M219.767 206.695H165.957C165.774 206.695 165.598 206.622 165.468 206.492C165.338 206.362 165.265 206.186 165.265 206.003C165.265 205.819 165.338 205.643 165.468 205.513C165.598 205.383 165.774 205.311 165.957 205.311H219.767C219.951 205.311 220.127 205.383 220.256 205.513C220.386 205.643 220.459 205.819 220.459 206.003C220.459 206.186 220.386 206.362 220.256 206.492C220.127 206.622 219.951 206.695 219.767 206.695Z" fill="#E6E6E6"/>
<path d="M245.459 215.032H165.957C165.86 215.042 165.763 215.031 165.67 215C165.578 214.969 165.493 214.92 165.421 214.854C165.348 214.789 165.291 214.709 165.251 214.62C165.212 214.531 165.192 214.435 165.192 214.337C165.192 214.24 165.212 214.143 165.251 214.054C165.291 213.965 165.348 213.885 165.421 213.82C165.493 213.754 165.578 213.705 165.67 213.674C165.763 213.643 165.86 213.632 165.957 213.642H245.459C245.632 213.658 245.793 213.739 245.909 213.867C246.026 213.996 246.091 214.163 246.091 214.337C246.091 214.511 246.026 214.678 245.909 214.807C245.793 214.935 245.632 215.016 245.459 215.032Z" fill="#E6E6E6"/>
<path opacity="0.29" d="M265.945 225.194H165.958V234.916H265.945V225.194Z" fill="#E80505"/>
<path d="M163.293 258.92H84.3792C84.2064 258.903 84.046 258.823 83.9292 258.694C83.8125 258.566 83.7478 258.398 83.7478 258.224C83.7478 258.051 83.8125 257.883 83.9292 257.755C84.046 257.626 84.2064 257.546 84.3792 257.529H163.293C163.39 257.52 163.487 257.531 163.58 257.561C163.672 257.592 163.757 257.642 163.829 257.707C163.901 257.773 163.959 257.853 163.998 257.942C164.038 258.031 164.058 258.127 164.058 258.224C164.058 258.322 164.038 258.418 163.998 258.507C163.959 258.596 163.901 258.676 163.829 258.742C163.757 258.807 163.672 258.857 163.58 258.887C163.487 258.918 163.39 258.929 163.293 258.92Z" fill="#E6E6E6"/>
<path d="M228.448 258.92H173.939C173.766 258.903 173.606 258.823 173.489 258.694C173.373 258.566 173.308 258.398 173.308 258.225C173.308 258.051 173.373 257.883 173.489 257.755C173.606 257.626 173.766 257.546 173.939 257.529H228.448C228.621 257.546 228.781 257.626 228.898 257.755C229.014 257.883 229.079 258.051 229.079 258.225C229.079 258.398 229.014 258.566 228.898 258.694C228.781 258.823 228.621 258.903 228.448 258.92Z" fill="#E6E6E6"/>
<path d="M270.11 258.92H251.009C250.836 258.903 250.676 258.823 250.559 258.694C250.442 258.566 250.377 258.398 250.377 258.225C250.377 258.051 250.442 257.883 250.559 257.755C250.676 257.626 250.836 257.546 251.009 257.529H270.11C270.283 257.546 270.443 257.626 270.56 257.755C270.677 257.883 270.741 258.051 270.741 258.225C270.741 258.398 270.677 258.566 270.56 258.694C270.443 258.823 270.283 258.903 270.11 258.92Z" fill="#E6E6E6"/>
<path opacity="0.29" d="M169.431 256.488H165.958V259.961H169.431V256.488Z" fill="#E80505"/>
<path opacity="0.29" d="M236.779 256.488H233.305V259.961H236.779V256.488Z" fill="#E80505"/>
<path d="M245.11 256.488H241.637V259.961H245.11V256.488Z" fill="#CCCCCC"/>
<path d="M144.431 277.594H84.7349C84.5621 277.577 84.4017 277.497 84.2849 277.368C84.1682 277.24 84.1035 277.072 84.1035 276.898C84.1035 276.725 84.1682 276.557 84.2849 276.429C84.4017 276.3 84.5621 276.22 84.7349 276.203H144.45C144.623 276.22 144.784 276.3 144.9 276.429C145.017 276.557 145.082 276.725 145.082 276.898C145.082 277.072 145.017 277.24 144.9 277.368C144.784 277.497 144.623 277.577 144.45 277.594H144.431Z" fill="#E6E6E6"/>
<path d="M187.478 294.547H84.0235C83.9266 294.557 83.8287 294.546 83.7363 294.515C83.6439 294.484 83.5589 294.435 83.4868 294.369C83.4146 294.304 83.357 294.224 83.3176 294.135C83.2782 294.046 83.2578 293.949 83.2578 293.852C83.2578 293.755 83.2782 293.658 83.3176 293.569C83.357 293.48 83.4146 293.4 83.4868 293.335C83.5589 293.269 83.6439 293.22 83.7363 293.189C83.8287 293.158 83.9266 293.147 84.0235 293.157H187.478C187.575 293.147 187.672 293.158 187.765 293.189C187.857 293.22 187.942 293.269 188.014 293.335C188.086 293.4 188.144 293.48 188.184 293.569C188.223 293.658 188.243 293.755 188.243 293.852C188.243 293.949 188.223 294.046 188.184 294.135C188.144 294.224 188.086 294.304 188.014 294.369C187.942 294.435 187.857 294.484 187.765 294.515C187.672 294.546 187.575 294.557 187.478 294.547Z" fill="#E6E6E6"/>
<path d="M210.395 277.594H164.942C164.845 277.603 164.747 277.592 164.655 277.562C164.562 277.531 164.477 277.481 164.405 277.416C164.333 277.35 164.275 277.27 164.236 277.181C164.196 277.092 164.176 276.996 164.176 276.899C164.176 276.801 164.196 276.705 164.236 276.616C164.275 276.527 164.333 276.447 164.405 276.381C164.477 276.316 164.562 276.266 164.655 276.236C164.747 276.205 164.845 276.194 164.942 276.203H210.42C210.593 276.22 210.754 276.3 210.87 276.429C210.987 276.557 211.052 276.725 211.052 276.899C211.052 277.072 210.987 277.24 210.87 277.368C210.754 277.497 210.593 277.577 210.42 277.594H210.395Z" fill="#E6E6E6"/>
<path d="M226.016 294.547H202.73C202.557 294.53 202.397 294.45 202.28 294.321C202.163 294.193 202.098 294.025 202.098 293.852C202.098 293.678 202.163 293.511 202.28 293.382C202.397 293.254 202.557 293.173 202.73 293.156H226.016C226.189 293.173 226.349 293.254 226.466 293.382C226.582 293.511 226.647 293.678 226.647 293.852C226.647 294.025 226.582 294.193 226.466 294.321C226.349 294.45 226.189 294.53 226.016 294.547Z" fill="#E6E6E6"/>
<path opacity="0.29" d="M150.679 275.162H147.206V278.635H150.679V275.162Z" fill="#E80505"/>
<path d="M159.01 275.162H155.537V278.635H159.01V275.162Z" fill="#CCCCCC"/>
<path opacity="0.29" d="M191.65 292.115H188.176V295.589H191.65V292.115Z" fill="#E80505"/>
<path d="M199.981 292.115H196.507V295.589H199.981V292.115Z" fill="#CCCCCC"/>
<path d="M229.832 331.779H193.034C192.861 331.762 192.701 331.682 192.584 331.553C192.467 331.425 192.403 331.257 192.403 331.083C192.403 330.91 192.467 330.742 192.584 330.614C192.701 330.485 192.861 330.405 193.034 330.388H229.832C229.929 330.379 230.027 330.39 230.119 330.42C230.212 330.451 230.297 330.501 230.369 330.566C230.441 330.632 230.499 330.712 230.538 330.801C230.578 330.89 230.598 330.986 230.598 331.083C230.598 331.181 230.578 331.277 230.538 331.366C230.499 331.455 230.441 331.535 230.369 331.601C230.297 331.666 230.212 331.716 230.119 331.746C230.027 331.777 229.929 331.788 229.832 331.779Z" fill="#E6E6E6"/>
<path d="M269.081 331.779H251.009C250.836 331.762 250.676 331.682 250.559 331.553C250.442 331.425 250.377 331.257 250.377 331.083C250.377 330.91 250.442 330.742 250.559 330.614C250.676 330.485 250.836 330.405 251.009 330.388H269.081C269.178 330.379 269.276 330.39 269.369 330.42C269.461 330.451 269.546 330.501 269.618 330.566C269.69 330.632 269.748 330.712 269.787 330.801C269.827 330.89 269.847 330.986 269.847 331.083C269.847 331.181 269.827 331.277 269.787 331.366C269.748 331.455 269.69 331.535 269.618 331.601C269.546 331.666 269.461 331.716 269.369 331.746C269.276 331.777 269.178 331.788 269.081 331.779Z" fill="#E6E6E6"/>
<path d="M237.478 329.347H234.004V332.82H237.478V329.347Z" fill="#CCCCCC"/>
<path opacity="0.29" d="M245.808 329.347H242.335V332.82H245.808V329.347Z" fill="#E80505"/>
<path d="M269.081 294.547H243.027C242.854 294.531 242.694 294.45 242.577 294.322C242.46 294.193 242.396 294.026 242.396 293.852C242.396 293.678 242.46 293.511 242.577 293.382C242.694 293.254 242.854 293.173 243.027 293.157H269.081C269.178 293.147 269.276 293.158 269.369 293.189C269.461 293.22 269.546 293.269 269.618 293.335C269.69 293.4 269.748 293.48 269.787 293.569C269.827 293.658 269.847 293.755 269.847 293.852C269.847 293.949 269.827 294.046 269.787 294.135C269.748 294.224 269.69 294.304 269.618 294.369C269.546 294.435 269.461 294.484 269.369 294.515C269.276 294.546 269.178 294.557 269.081 294.547Z" fill="#E6E6E6"/>
<path d="M231.921 292.115H228.447V295.589H231.921V292.115Z" fill="#CCCCCC"/>
<path opacity="0.29" d="M240.252 292.115H236.779V295.589H240.252V292.115Z" fill="#E80505"/>
<path d="M132.6 313.713H84.7349C84.5621 313.696 84.4017 313.616 84.2849 313.487C84.1682 313.359 84.1035 313.191 84.1035 313.017C84.1035 312.844 84.1682 312.676 84.2849 312.548C84.4017 312.419 84.5621 312.339 84.7349 312.322H132.6C132.773 312.339 132.934 312.419 133.05 312.548C133.167 312.676 133.232 312.844 133.232 313.017C133.232 313.191 133.167 313.359 133.05 313.487C132.934 313.616 132.773 313.696 132.6 313.713Z" fill="#E6E6E6"/>
<path d="M226.016 313.713H191.992C191.819 313.696 191.659 313.616 191.542 313.487C191.426 313.359 191.361 313.191 191.361 313.017C191.361 312.844 191.426 312.676 191.542 312.548C191.659 312.419 191.819 312.339 191.992 312.322H226.016C226.188 312.339 226.349 312.419 226.466 312.548C226.582 312.676 226.647 312.844 226.647 313.017C226.647 313.191 226.582 313.359 226.466 313.487C226.349 313.616 226.188 313.696 226.016 313.713Z" fill="#E6E6E6"/>
<path d="M269.082 313.713H235.046C234.949 313.722 234.851 313.711 234.758 313.681C234.666 313.65 234.581 313.6 234.509 313.535C234.437 313.469 234.379 313.389 234.34 313.3C234.3 313.211 234.28 313.115 234.28 313.018C234.28 312.92 234.3 312.824 234.34 312.735C234.379 312.646 234.437 312.566 234.509 312.5C234.581 312.435 234.666 312.385 234.758 312.355C234.851 312.324 234.949 312.313 235.046 312.322H269.082C269.179 312.313 269.277 312.324 269.369 312.355C269.461 312.385 269.546 312.435 269.619 312.5C269.691 312.566 269.748 312.646 269.788 312.735C269.827 312.824 269.847 312.92 269.847 313.018C269.847 313.115 269.827 313.211 269.788 313.3C269.748 313.389 269.691 313.469 269.619 313.535C269.546 313.6 269.461 313.65 269.369 313.681C269.277 313.711 269.179 313.722 269.082 313.713Z" fill="#E6E6E6"/>
<path d="M137.49 311.294H134.017V314.767H137.49V311.294Z" fill="#CCCCCC"/>
<path opacity="0.29" d="M145.821 311.294H142.348V314.767H145.821V311.294Z" fill="#E80505"/>
<path d="M153.461 311.294H149.987V314.767H153.461V311.294Z" fill="#CCCCCC"/>
<path d="M165.957 331.779H84.7349C84.5621 331.762 84.4017 331.682 84.2849 331.553C84.1682 331.425 84.1035 331.257 84.1035 331.084C84.1035 330.91 84.1682 330.742 84.2849 330.614C84.4017 330.485 84.5621 330.405 84.7349 330.388H165.977C166.15 330.405 166.31 330.485 166.427 330.614C166.544 330.742 166.608 330.91 166.608 331.084C166.608 331.257 166.544 331.425 166.427 331.553C166.31 331.682 166.15 331.762 165.977 331.779H165.957Z" fill="#E6E6E6"/>
<path d="M170.815 329.347H167.342V332.82H170.815V329.347Z" fill="#CCCCCC"/>
<path opacity="0.29" d="M179.146 329.347H175.673V332.82H179.146V329.347Z" fill="#E80505"/>
<path d="M186.785 329.347H183.312V332.82H186.785V329.347Z" fill="#CCCCCC"/>
<path opacity="0.29" d="M161.792 311.294H158.318V314.767H161.792V311.294Z" fill="#E80505"/>
<path d="M171.514 311.294H168.04V314.767H171.514V311.294Z" fill="#CCCCCC"/>
<path opacity="0.29" d="M179.146 311.294H175.673V314.767H179.146V311.294Z" fill="#E80505"/>
<path d="M187.484 311.294H184.01V314.767H187.484V311.294Z" fill="#CCCCCC"/>
<path d="M270.11 277.594H231.566C231.469 277.603 231.371 277.592 231.278 277.562C231.186 277.531 231.101 277.481 231.029 277.416C230.957 277.35 230.899 277.27 230.86 277.181C230.82 277.092 230.8 276.996 230.8 276.899C230.8 276.801 230.82 276.705 230.86 276.616C230.899 276.527 230.957 276.447 231.029 276.381C231.101 276.316 231.186 276.266 231.278 276.236C231.371 276.205 231.469 276.194 231.566 276.203H270.104C270.277 276.22 270.437 276.3 270.554 276.429C270.67 276.557 270.735 276.725 270.735 276.899C270.735 277.072 270.67 277.24 270.554 277.368C270.437 277.497 270.277 277.577 270.104 277.594H270.11Z" fill="#E6E6E6"/>
<path opacity="0.29" d="M217.335 275.162H213.861V278.635H217.335V275.162Z" fill="#E80505"/>
<path d="M225.673 275.162H222.2V278.635H225.673V275.162Z" fill="#CCCCCC"/>
<path d="M99.9869 282.135H33.3311V323.797H99.9869V282.135Z" fill="#E80505"/>
<g opacity="0.3">
<path d="M57.2446 313.946C57.0658 313.946 56.8941 313.876 56.7659 313.752L46.7401 304.159C46.6723 304.095 46.6184 304.018 46.5815 303.932C46.5447 303.847 46.5256 303.754 46.5256 303.661C46.5256 303.568 46.5447 303.476 46.5815 303.39C46.6184 303.304 46.6723 303.227 46.7401 303.163L56.7595 293.461C56.8238 293.396 56.9004 293.344 56.9848 293.309C57.0691 293.274 57.1597 293.256 57.2511 293.256C57.3425 293.256 57.433 293.274 57.5174 293.309C57.6017 293.344 57.6783 293.396 57.7427 293.461C57.8722 293.591 57.9449 293.768 57.9449 293.952C57.9449 294.136 57.8722 294.313 57.7427 294.444L48.2342 303.661L57.7362 312.756C57.8011 312.82 57.8527 312.897 57.8878 312.981C57.923 313.065 57.9411 313.156 57.9411 313.247C57.9411 313.339 57.923 313.429 57.8878 313.513C57.8527 313.598 57.8011 313.674 57.7362 313.739C57.6054 313.869 57.4291 313.943 57.2446 313.946Z" fill="white"/>
</g>
<g opacity="0.3">
<path d="M77.0764 313.946C76.9386 313.945 76.8041 313.904 76.6901 313.827C76.576 313.749 76.4876 313.64 76.4362 313.512C76.3848 313.384 76.3727 313.244 76.4015 313.109C76.4303 312.974 76.4986 312.851 76.5978 312.756L86.0997 303.532L76.5978 294.437C76.4648 294.31 76.3877 294.136 76.3835 293.952C76.3792 293.768 76.4482 293.59 76.5751 293.457C76.7021 293.324 76.8766 293.247 77.0604 293.243C77.2442 293.239 77.4221 293.308 77.5551 293.435L87.5809 303.027C87.6482 303.092 87.7018 303.169 87.7384 303.255C87.7751 303.34 87.7941 303.432 87.7944 303.525C87.7955 303.619 87.7777 303.712 87.7422 303.799C87.7066 303.885 87.654 303.964 87.5874 304.03L77.5615 313.732C77.4342 313.864 77.2599 313.941 77.0764 313.946Z" fill="white"/>
</g>
<g opacity="0.3">
<path d="M62.4967 312.684C62.3843 312.684 62.2736 312.658 62.1733 312.607C62.0924 312.565 62.0206 312.507 61.9622 312.437C61.9037 312.367 61.8597 312.286 61.8326 312.198C61.8056 312.111 61.796 312.02 61.8045 311.929C61.813 311.838 61.8395 311.75 61.8822 311.669L70.9379 294.314C70.9768 294.227 71.0332 294.149 71.1035 294.085C71.1738 294.02 71.2565 293.971 71.3466 293.94C71.4367 293.909 71.5322 293.896 71.6273 293.903C71.7224 293.91 71.815 293.937 71.8995 293.981C71.9839 294.025 72.0584 294.086 72.1184 294.16C72.1784 294.235 72.2226 294.32 72.2482 294.412C72.2739 294.504 72.2805 294.6 72.2676 294.694C72.2547 294.789 72.2226 294.88 72.1733 294.961L63.1177 312.316C63.0587 312.429 62.9694 312.523 62.8597 312.588C62.75 312.654 62.6243 312.687 62.4967 312.684Z" fill="white"/>
</g>
<path d="M288.855 237.697H281.216V372.4H288.855V237.697Z" fill="#999999"/>
<path opacity="0.1" d="M288.855 237.697H285.382V372.4H288.855V237.697Z" fill="black"/>
<path d="M312.464 238.04H304.825V349.482H312.464V238.04Z" fill="#999999"/>
<path opacity="0.1" d="M312.464 238.04H308.991V349.482H312.464V238.04Z" fill="black"/>
<path d="M479.108 237.697H471.469V372.4H479.108V237.697Z" fill="#999999"/>
<path opacity="0.1" d="M479.107 237.697H475.634V372.4H479.107V237.697Z" fill="black"/>
<path d="M498.551 229.017H490.912V349.489H498.551V229.017Z" fill="#999999"/>
<path opacity="0.1" d="M498.551 229.017H495.078V349.489H498.551V229.017Z" fill="black"/>
<path d="M445.084 175.899H471.301C472.081 175.899 472.83 176.209 473.382 176.761C473.934 177.313 474.244 178.062 474.244 178.842V222.419H445.084V175.899Z" fill="#B3B3B3"/>
<path d="M272.885 235.615L308.713 217.574H508.978L485.356 235.615H272.885Z" fill="#CCCCCC"/>
<path d="M350.653 361.986L329.631 378.428C329.631 378.428 320.828 386.287 328.435 391.145C328.435 391.145 339.541 398.092 348.57 386.287L361.099 365.822L350.653 361.986Z" fill="#232323"/>
<path opacity="0.2" d="M327.044 385.589C332.219 391.203 340.356 390.032 345.446 384.942C347.84 382.49 349.974 379.554 352.251 376.986C354.243 374.644 357.109 371.3 359.14 369.043C357.329 371.462 354.573 374.922 352.671 377.329C350.466 379.994 348.318 382.924 345.931 385.44C340.621 390.686 332.057 391.831 327.05 385.608L327.044 385.589Z" fill="black"/>
<path opacity="0.2" d="M331.384 377.581C335.556 377.523 339.993 379.146 342.606 382.516C343.465 383.636 344.08 384.923 344.411 386.294C344.243 385.99 344.081 385.647 343.932 385.369C343.786 385.058 343.61 384.761 343.408 384.483C340.821 380.35 336.009 378.403 331.384 377.581Z" fill="black"/>
<path opacity="0.2" d="M336.067 375.162C339.192 374.741 343.648 375.763 344.412 379.301C342.717 376.32 339.172 375.802 336.067 375.162Z" fill="black"/>
<path opacity="0.2" d="M338.849 372.4C341.966 371.979 346.429 373.001 347.186 376.533C345.498 373.558 341.947 373.04 338.849 372.4Z" fill="black"/>
<path opacity="0.2" d="M344.405 368.234C347.523 367.814 351.986 368.836 352.743 372.367C351.055 369.385 347.504 368.874 344.405 368.234Z" fill="black"/>
<path d="M355.861 351.915L350.686 361.986C350.686 361.986 348.539 364.573 351.495 366.177C352.303 366.608 353.205 366.83 354.121 366.824H359.231C359.603 366.824 359.969 366.736 360.3 366.566C360.631 366.396 360.916 366.15 361.132 365.847L367.4 357.005C367.4 357.005 358.61 353.622 355.861 351.915Z" fill="#F9B499"/>
<path d="M354.67 330.032L356.947 336.908L360.401 327.076L354.67 330.032Z" fill="#F9B499"/>
<path d="M459.748 215.006C459.748 220.336 456.19 220.336 456.19 220.336L446.488 223.81C442.167 225.252 440.382 225.032 439.696 224.754C439.554 224.7 439.401 224.678 439.249 224.689C439.097 224.701 438.949 224.745 438.816 224.819C438.802 224.835 438.784 224.848 438.765 224.858C438.016 225.381 437.179 225.764 436.294 225.99C434.424 226.365 434.69 224.495 434.69 224.495C434.753 224.166 434.796 223.834 434.819 223.499C434.864 222.231 434.531 220.978 433.863 219.899C433.195 218.82 432.222 217.964 431.067 217.438C430.076 216.979 429.043 216.615 427.982 216.352C427.33 216.19 426.648 216.19 425.996 216.352L420.608 217.587H393.525L368.693 216.863C366.385 202.228 369.264 187.246 376.831 174.508C378.49 171.656 380.399 168.957 382.536 166.442C383.001 165.899 383.273 165.621 383.273 165.621L384.806 163.402C384.806 163.402 405.505 164.786 405.744 164.094C405.983 163.402 420.071 155.039 420.071 155.039L439.968 163.447C440.851 163.837 441.642 164.408 442.29 165.123C446.572 169.554 449.929 180.11 449.929 180.11L458.985 209.968C459.453 211.608 459.71 213.301 459.748 215.006Z" fill="#E80505"/>
<path d="M437.128 197.283C437.128 197.283 417.245 200.517 402.361 197.426C401.98 197.348 401.604 197.251 401.229 197.147C395.38 195.606 389.325 194.997 383.286 195.343L369.017 195.226L368.312 199.948H392.161C392.161 199.948 399.923 200.2 406.197 202.283C406.197 202.283 412.445 204.366 424.955 202.975L439.069 201.255L437.128 197.283Z" fill="#2F2E41"/>
<path opacity="0.2" d="M442.303 165.078C429.114 166.759 405.504 174.508 405.504 174.508C399.948 170.343 382.548 166.442 382.548 166.442C383.014 165.899 383.286 165.621 383.286 165.621L384.819 163.402C384.819 163.402 405.517 164.786 405.757 164.094C405.996 163.402 420.084 155.039 420.084 155.039L439.98 163.447C440.859 163.823 441.65 164.379 442.303 165.078Z" fill="black"/>
<path d="M401.099 164.502C400.835 164.572 400.567 164.628 400.297 164.67C395.601 165.498 390.757 163.461 386.882 159.496C383.466 155.908 381.07 151.473 379.942 146.65C376.973 134.631 381.643 123.15 390.368 120.996C399.094 118.842 408.564 126.818 411.533 138.842C414.502 150.867 409.832 162.355 401.099 164.502Z" fill="#F9B499"/>
<path d="M413.493 141.184C414.068 141.184 414.534 140.251 414.534 139.101C414.534 137.951 414.068 137.018 413.493 137.018C412.918 137.018 412.452 137.951 412.452 139.101C412.452 140.251 412.918 141.184 413.493 141.184Z" stroke="#FF0000" stroke-width="0.485123" stroke-miterlimit="10"/>
<path d="M421.475 136.32C421.475 136.32 432.587 142.432 414.534 148.053C414.324 147.283 414.207 146.49 414.185 145.692C414.159 144.702 414.276 143.712 414.534 142.756L408.978 139.935C408.978 139.935 405.957 140.485 404.34 137.012C404.34 137.012 398.564 137.012 399.256 132.846C399.256 132.846 395.091 135.627 393.7 132.154C393.7 132.154 387.432 136.604 381.197 129.166C381.197 129.166 378.428 134.237 379.256 142.749C379.256 142.749 375.155 146.035 372.833 142.995C372.314 142.286 372.025 141.435 372.005 140.556C371.949 139.823 372.118 139.089 372.491 138.455C372.863 137.82 373.42 137.314 374.088 137.005C374.088 137.005 369.062 135.136 369.198 131.003C369.253 129.937 369.566 128.9 370.11 127.982C370.11 127.982 371.151 125.395 375.045 126.488C375.736 126.696 376.407 126.965 377.051 127.29C377.051 127.29 371.74 116.126 379.25 108.862C379.25 108.862 391.63 96.0414 396.494 112.012C396.494 112.012 400.731 105.453 407.49 107.083C407.986 107.201 408.473 107.357 408.946 107.549C408.946 107.549 413.803 108.842 413.111 116.669C413.111 116.669 419.36 111.313 424.916 117.561C424.916 117.561 429.082 122.665 424.916 128.092C424.968 128.105 427.031 132.846 421.475 136.32Z" fill="#2F2E41"/>
<path opacity="0.2" d="M381.895 127.814C381.895 127.814 379.812 121.048 386.06 116.876C386.06 116.876 390.543 113.959 396.727 117.82C397.347 118.224 397.937 118.671 398.492 119.159C400.387 120.831 402.816 121.773 405.342 121.818C405.342 121.818 412.458 121.514 413.492 129.579C413.492 129.579 405.504 122.645 399.605 125.996C399.605 125.996 396.481 116.151 388.143 118.926C388.143 118.959 383.285 120.349 381.895 127.814Z" fill="black"/>
<path opacity="0.2" d="M375.026 126.494C371.643 127.096 369.204 131.022 369.204 131.022C369.259 129.956 369.572 128.92 370.116 128.001C370.116 128.001 371.132 125.382 375.026 126.494Z" fill="black"/>
<path opacity="0.2" d="M421.475 136.32C421.475 136.32 432.588 142.432 414.535 148.053C414.221 147.308 414.101 146.496 414.185 145.692C414.235 145.231 414.353 144.78 414.535 144.353L417.309 139.935C419.392 138.687 419.392 135.627 419.392 135.627C420.595 135.148 421.634 134.333 422.387 133.279C422.938 132.519 423.291 131.634 423.414 130.704C423.537 129.773 423.426 128.827 423.092 127.95C421.65 124.276 417.309 125.304 417.309 125.304C418.7 114.955 412.445 118.286 412.445 118.286C411.798 108.894 407.775 107.193 407.523 107.096C408.019 107.214 408.506 107.37 408.978 107.561C408.978 107.561 413.836 108.855 413.144 116.682C413.144 116.682 419.392 111.326 424.949 117.574C424.949 117.574 429.114 122.678 424.949 128.105C424.968 128.105 427.031 132.846 421.475 136.32Z" fill="black"/>
<path d="M426.332 156.455L408.978 171.184C406.196 173.415 404.812 171.734 404.812 171.734L404.043 170.524L400.297 164.703C413.493 161.695 412.374 144.386 412.374 144.386H414.534C414.18 146.887 414.667 149.435 415.918 151.63C418.447 150.615 421.74 150.712 423.292 150.835C423.924 150.878 424.55 150.984 425.162 151.151C430.744 152.652 426.332 156.455 426.332 156.455Z" fill="#F9B499"/>
<path d="M426.333 156.455L408.978 171.184C406.197 173.415 404.813 171.734 404.813 171.734L404.043 170.524C411.604 167.232 418.92 158.344 418.92 158.344C421.546 154.463 417.212 152.18 416.165 151.695C416.147 151.686 416.132 151.673 416.121 151.656C416.11 151.64 416.105 151.621 416.105 151.601C416.105 151.581 416.11 151.562 416.121 151.545C416.132 151.529 416.147 151.515 416.165 151.507C418.661 150.589 421.779 150.686 423.28 150.802C423.912 150.846 424.538 150.952 425.149 151.119C430.744 152.652 426.333 156.455 426.333 156.455Z" fill="#F7A48B"/>
<path d="M400.297 164.67L402.283 167.781C402.283 167.781 414.353 160.97 411.986 150.731C412.031 150.712 411.061 162.471 400.297 164.67Z" fill="#F7A48B"/>
<path d="M387.451 164.094C391.723 164.756 395.84 166.182 399.605 168.305" stroke="#FF0000" stroke-width="0.485123" stroke-miterlimit="10"/>
<path opacity="0.2" d="M459.748 215.007C459.748 220.336 456.191 220.336 456.191 220.336L446.488 223.81C442.167 225.252 440.382 225.032 439.696 224.754C439.554 224.701 439.401 224.678 439.249 224.69C439.098 224.701 438.95 224.745 438.817 224.819C439.05 224.664 439.903 223.875 438.765 221.585L435.123 216.139C435.069 216.055 435.032 215.961 435.015 215.863C434.999 215.764 435.002 215.663 435.026 215.567C435.049 215.47 435.093 215.378 435.153 215.299C435.213 215.219 435.289 215.153 435.376 215.104C435.484 215.042 435.607 215.011 435.731 215.013C435.846 215.013 435.959 215.039 436.062 215.091C436.164 215.143 436.252 215.218 436.32 215.311L440.938 221.734C440.938 221.734 441.63 224.509 450.641 220.343C450.641 220.336 458.442 217.335 459.748 215.007Z" fill="black"/>
<path opacity="0.2" d="M436.274 225.99C434.405 226.365 434.67 224.496 434.67 224.496C434.733 224.166 434.777 223.834 434.799 223.499C434.844 222.231 434.512 220.978 433.844 219.899C433.176 218.821 432.203 217.964 431.048 217.439C430.056 216.979 429.023 216.615 427.962 216.352C427.962 216.352 433.279 214.082 436.054 221.022C436.054 221.029 436.908 224.03 436.274 225.99Z" fill="black"/>
<path opacity="0.2" d="M438.137 209.224C438.137 209.224 429.082 213.034 425.977 216.339L420.589 217.574H393.525L368.693 216.863C366.385 202.228 369.264 187.246 376.831 174.508C377.025 174.508 382.581 175.899 388.131 195.343C388.131 195.343 393.648 215.919 402.361 215.006H417.562C417.562 215.006 431.197 215.479 431.197 206.449V192.561C431.197 192.561 431.617 187.115 433.842 190.537L440.919 205.045C440.919 205.045 442.303 207.84 438.137 209.224Z" fill="black"/>
<path opacity="0.2" d="M440.22 166.882C434.774 171.223 431.96 178.06 431.889 184.935C431.825 184.075 431.715 183.202 431.728 182.348C431.728 176.235 434.891 170.026 440.22 166.895V166.882Z" fill="black"/>
<path d="M414.534 209.573C414.443 209.57 414.356 209.531 414.293 209.464C414.23 209.398 414.196 209.309 414.198 209.217L414.89 188.383C414.89 174.612 418.35 164.767 418.383 164.67C418.415 164.584 418.48 164.514 418.563 164.475C418.647 164.436 418.742 164.432 418.829 164.463C418.872 164.478 418.911 164.502 418.944 164.532C418.978 164.563 419.005 164.599 419.024 164.64C419.043 164.681 419.054 164.725 419.056 164.77C419.058 164.816 419.052 164.861 419.036 164.903C419.036 165 415.589 174.735 415.589 188.396L414.89 209.237C414.887 209.328 414.847 209.415 414.781 209.478C414.714 209.541 414.626 209.575 414.534 209.573Z" fill="#2F2E41"/>
<path d="M397.154 211.656C397.063 211.653 396.976 211.613 396.913 211.547C396.85 211.48 396.816 211.392 396.818 211.3L397.517 191.164C397.498 183.82 398.079 176.486 399.256 169.237C399.264 169.192 399.281 169.149 399.305 169.111C399.33 169.073 399.362 169.04 399.399 169.014C399.436 168.988 399.478 168.97 399.523 168.96C399.567 168.951 399.613 168.95 399.658 168.959C399.748 168.976 399.829 169.029 399.881 169.105C399.933 169.181 399.953 169.275 399.936 169.366C398.77 176.576 398.193 183.868 398.209 191.171L397.517 211.32C397.512 211.412 397.471 211.498 397.403 211.561C397.336 211.624 397.246 211.658 397.154 211.656Z" fill="#2F2E41"/>
<g opacity="0.2">
<path d="M414.535 209.573C414.443 209.57 414.357 209.531 414.294 209.464C414.231 209.398 414.197 209.309 414.198 209.217L414.89 188.383C414.89 174.612 418.351 164.767 418.383 164.67C418.415 164.584 418.48 164.514 418.564 164.475C418.647 164.436 418.743 164.432 418.83 164.463C418.872 164.478 418.911 164.502 418.945 164.532C418.978 164.563 419.005 164.599 419.025 164.64C419.044 164.681 419.055 164.725 419.057 164.77C419.059 164.816 419.052 164.861 419.037 164.903C419.037 165 415.589 174.735 415.589 188.396L414.89 209.237C414.887 209.328 414.848 209.415 414.781 209.478C414.715 209.541 414.626 209.575 414.535 209.573Z" fill="black"/>
<path d="M397.154 211.656C397.063 211.653 396.976 211.613 396.913 211.547C396.85 211.48 396.816 211.392 396.818 211.3L397.517 191.164C397.498 183.82 398.079 176.486 399.256 169.237C399.264 169.192 399.281 169.149 399.305 169.111C399.33 169.073 399.362 169.04 399.399 169.014C399.436 168.988 399.478 168.97 399.523 168.96C399.567 168.951 399.613 168.95 399.658 168.959C399.748 168.976 399.829 169.029 399.881 169.105C399.933 169.181 399.953 169.275 399.936 169.366C398.77 176.576 398.193 183.868 398.209 191.171L397.517 211.32C397.512 211.412 397.471 211.498 397.403 211.561C397.336 211.624 397.246 211.658 397.154 211.656Z" fill="black"/>
</g>
<path d="M456.882 240.472C456.882 240.582 456.882 246.138 455.498 257.135L455.278 258.706C455.068 260.265 454.956 261.836 454.941 263.409C454.903 265.893 453.285 270.621 441.164 268.719C441.481 268.182 441.772 267.652 442.044 267.109L442.27 266.669C443.285 264.728 444.657 261.766 445.084 259.217C445.084 259.217 406.921 255.75 394.392 250.886C394.392 250.886 376.086 243.247 369.269 245.679L363.842 250.207C363.842 250.207 358.984 248.816 365.925 240.505L456.882 240.472Z" fill="#E80505"/>
<path opacity="0.2" d="M445.085 259.217C445.085 259.217 454.011 259.812 453.681 263.745C453.647 264.109 453.537 264.461 453.358 264.778C453.178 265.096 452.933 265.372 452.64 265.589C451.45 266.501 448.597 267.717 442.193 266.811C443.408 264.383 444.376 261.839 445.085 259.217Z" fill="black"/>
<path opacity="0.2" d="M364.903 249.314C364.903 249.314 360.809 246.727 369.269 245.679L364.903 249.314Z" fill="black"/>
<path d="M445.084 259.217C444.434 261.801 443.49 264.301 442.27 266.669L442.044 267.109C441.895 267.387 441.759 267.633 441.637 267.853C441.514 268.073 441.333 268.428 441.164 268.719C432.562 283.868 414.282 297.465 406.844 302.594C405.862 303.266 405.046 304.152 404.456 305.185C403.865 306.218 403.516 307.371 403.435 308.558C401.895 332.387 390.925 352.956 390.925 352.956C388.59 356.3 385.104 357.911 381.223 358.428C368.868 360.097 352.038 350.873 352.038 350.873L361.093 325.181C368.732 296.721 376.365 288.383 376.365 288.383L393.532 252.73L394.418 250.886C406.895 255.75 445.084 259.217 445.084 259.217Z" fill="#2F2E41"/>
<path opacity="0.2" d="M445.084 259.217C444.434 261.801 443.49 264.301 442.271 266.669L442.044 267.109C441.895 267.387 441.76 267.633 441.637 267.853C441.514 268.073 441.333 268.428 441.164 268.719C432.562 283.868 414.282 297.465 406.844 302.594C405.862 303.266 405.046 304.152 404.456 305.185C403.865 306.218 403.516 307.371 403.435 308.558C401.895 332.387 390.925 352.956 390.925 352.956C388.59 356.3 385.104 357.911 381.223 358.428C394.159 341.792 401.449 304.741 401.449 304.741C400.873 296.119 426.333 273.784 426.333 273.784C436.035 264.082 423.558 261.281 423.558 261.281C412.387 259.521 397.736 254.269 393.506 252.71L394.392 250.867C406.895 255.75 445.084 259.217 445.084 259.217Z" fill="black"/>
<path d="M381.223 278.247L359.677 286.992L368.086 303.81C368.086 303.81 364.502 314.282 360.712 326.941C360.712 326.941 352.031 332.84 343.008 332.148C343.008 332.148 335.369 312.704 331.203 292.568C331.203 292.568 325.647 280.763 335.369 273.124L363.519 250.356L369.295 245.679C369.295 245.679 373.59 242.555 394.418 250.886L381.223 278.247Z" fill="#2F2E41"/>
<path d="M354.218 344.683L340.459 355.304C339.12 356.358 337.637 357.214 336.055 357.846C333.978 358.655 330.977 360.433 331.63 363.778C331.813 364.652 332.208 365.469 332.78 366.155C333.351 366.842 334.083 367.378 334.91 367.717C336.559 368.402 339.172 368.868 343.014 367.956L350.653 361.986L355.485 352.581L352.038 350.873L354.218 344.683Z" fill="#232323"/>
<path opacity="0.2" d="M381.223 278.247L359.677 286.992L368.085 303.81C365.921 311.698 363.354 319.47 360.395 327.096C360.395 327.096 352.031 332.84 343.008 332.148C368.7 330.065 356.449 288.668 356.449 288.668C353.616 282.342 357.866 280.485 360.446 279.948C362.094 279.609 363.716 279.151 365.298 278.577L371.805 276.184C374.206 275.325 376.412 273.993 378.29 272.268C380.169 270.543 381.683 268.459 382.743 266.138C383.506 264.435 383.992 262.62 384.185 260.763C384.38 258.623 383.821 256.482 382.604 254.71C381.388 252.939 379.59 251.648 377.523 251.061C372.076 249.457 366.617 249.871 363.486 250.349L369.263 245.673C369.263 245.673 373.558 242.549 394.386 250.88L381.223 278.247Z" fill="black"/>
<path opacity="0.2" d="M331.54 362.872C336.714 365.776 343.079 365.407 348.357 363.034C349.127 362.704 349.864 362.296 350.647 361.96C349.948 362.432 349.237 362.898 348.513 363.338C343.338 366.268 336.365 366.636 331.533 362.872H331.54Z" fill="#232323"/>
<path opacity="0.2" d="M339.36 356.093C342.038 357.283 347.238 360.518 347.186 363.791C346.721 361.973 345.052 360.822 343.726 359.612C342.4 358.402 340.815 357.303 339.36 356.093Z" fill="black"/>
<path opacity="0.2" d="M343.014 353.331C345.019 353.616 346.585 355.427 347.186 357.277C345.744 355.951 344.599 354.515 343.014 353.331Z" fill="black"/>
<path opacity="0.2" d="M345.615 351.32C346.602 351.578 347.51 352.078 348.257 352.773C349.004 353.468 349.568 354.338 349.897 355.304C348.493 353.888 347.083 352.717 345.615 351.32Z" fill="black"/>
<path opacity="0.2" d="M348.57 349.036C350.217 349.981 351.453 351.505 352.037 353.312C350.68 352.063 349.512 350.623 348.57 349.036Z" fill="black"/>
<path d="M485.356 235.615H272.885V240.472H485.356V235.615Z" fill="#B3B3B3"/>
<path d="M485.355 235.615V240.472L508.965 221.727L508.978 217.574L485.355 235.615Z" fill="#999999"/>
<path d="M328.435 223.111H391.87L387.129 181.882C387.031 180.994 386.61 180.173 385.945 179.576C385.281 178.98 384.419 178.649 383.526 178.648H325.311C325.042 178.653 324.777 178.714 324.533 178.826C324.289 178.939 324.071 179.101 323.893 179.302C323.715 179.503 323.58 179.739 323.498 179.995C323.416 180.251 323.388 180.522 323.416 180.789L328.435 223.111Z" fill="#E80505"/>
<path opacity="0.3" d="M391.87 223.111H328.435L323.416 180.815C323.388 180.547 323.416 180.275 323.499 180.018C323.582 179.762 323.718 179.525 323.897 179.323C324.077 179.122 324.296 178.96 324.542 178.848C324.788 178.736 325.054 178.677 325.324 178.674H383.539C384.431 178.677 385.291 179.008 385.954 179.605C386.618 180.201 387.038 181.021 387.135 181.908L391.87 223.111Z" fill="white"/>
<path opacity="0.3" d="M377.445 178.674L328.434 221.029L327.374 212.833L367.089 178.674H377.445Z" fill="white"/>
<path opacity="0.3" d="M334.457 223.111L385.912 179.573C386.572 180.179 387.002 180.995 387.128 181.882L387.374 184.043L341.391 223.111H334.457Z" fill="white"/>
<path d="M389.535 223.111H328.435V227.277H389.535V223.111Z" fill="#E80505"/>
<path d="M408.609 223.111H389.534V227.277H408.609V223.111Z" fill="#E80505"/>
<path opacity="0.2" d="M408.609 223.111H389.534V227.277H408.609V223.111Z" fill="black"/>
<path d="M271.494 228.667H301.669L323.396 216.003H297.445L271.494 228.667Z" fill="white"/>
<path d="M301.669 228.667H271.494V231.675H301.669V228.667Z" fill="#E6E6E6"/>
<path d="M323.395 216.003V219.793L301.668 231.675V228.668L323.395 216.003Z" fill="#CCCCCC"/>
<path opacity="0.1" d="M323.395 216.003V219.793L301.668 231.675V228.668L323.395 216.003Z" fill="black"/>
<path d="M425.977 216.339C425.977 216.339 417.264 217.549 412.426 224.153C412.426 224.153 405.925 230.071 412.31 229.023C412.31 229.023 412.614 232.051 417.736 230.013C417.736 230.013 418.623 232.154 424.205 229.023C424.205 229.023 429.793 225.893 434.657 224.496C434.67 224.502 436.721 216.501 425.977 216.339Z" fill="#F9B499"/>
<path d="M417.853 222.419C416.39 224.913 414.521 227.145 412.322 229.023C413.789 226.532 415.657 224.3 417.853 222.419Z" fill="#F7A48B"/>
<path d="M417.736 230.013C418.836 228.03 420.347 226.306 422.167 224.955C421.066 226.936 419.555 228.66 417.736 230.013Z" fill="#F7A48B"/>
<path d="M413.144 144.651C415.445 144.651 417.31 142.319 417.31 139.444C417.31 136.568 415.445 134.237 413.144 134.237C410.843 134.237 408.979 136.568 408.979 139.444C408.979 142.319 410.843 144.651 413.144 144.651Z" fill="#F9B499"/>
<path d="M414.535 148.053C414.535 148.053 422.426 144.864 430.214 145.647C434.57 146.122 438.58 148.244 441.424 151.578C444.561 155.201 448.888 161.345 444.257 163.415C443.503 163.728 442.69 163.871 441.875 163.834C441.06 163.797 440.264 163.581 439.541 163.202C436.307 161.591 427.957 158.732 408.629 171.384L426.333 156.455C426.333 156.455 430.531 152.264 424.069 150.938C423.511 150.829 422.943 150.775 422.375 150.776C420.195 150.814 418.026 151.089 415.906 151.598C415.906 151.598 414.535 149.373 414.535 148.053Z" fill="#E80505"/>
<path opacity="0.3" d="M414.535 148.053C414.535 148.053 422.426 144.864 430.214 145.647C434.57 146.122 438.58 148.244 441.424 151.578C444.561 155.201 448.888 161.345 444.257 163.415C443.503 163.728 442.69 163.871 441.875 163.834C441.06 163.797 440.264 163.581 439.541 163.202C436.307 161.591 427.957 158.732 408.629 171.384L426.333 156.455C426.333 156.455 430.531 152.264 424.069 150.938C423.511 150.829 422.943 150.775 422.375 150.776C420.195 150.814 418.026 151.089 415.906 151.598C415.906 151.598 414.535 149.373 414.535 148.053Z" fill="white"/>
<path opacity="0.3" d="M436.055 151.598C432.348 156.093 427.335 159.398 422.31 162.264C421.566 162.639 420.835 163.04 420.084 163.402C425.492 159.573 431.081 156.022 436.055 151.598Z" fill="white"/>
<path opacity="0.3" d="M442.303 154.373C439.198 157.827 434.573 159.664 430.071 160.414C434.256 158.752 438.648 157.025 442.303 154.366V154.373Z" fill="white"/>
<path d="M404.813 171.734C401.941 170.007 390.996 167.335 387.297 166.462C386.579 166.302 385.85 166.194 385.117 166.139C382.006 165.847 382.594 164.095 382.594 164.095C382.594 161.32 386.883 159.509 386.883 159.509C390.764 163.461 395.602 165.498 400.298 164.683L404.813 171.734Z" fill="#E80505"/>
<path opacity="0.3" d="M404.813 171.734C401.941 170.007 390.996 167.335 387.297 166.462C386.579 166.302 385.85 166.194 385.117 166.139C382.006 165.847 382.594 164.095 382.594 164.095C382.594 161.32 386.883 159.509 386.883 159.509C390.764 163.461 395.602 165.498 400.298 164.683L404.813 171.734Z" fill="white"/>
<path d="M356.553 206.449C359.428 206.449 361.76 204.118 361.76 201.242C361.76 198.366 359.428 196.035 356.553 196.035C353.677 196.035 351.346 198.366 351.346 201.242C351.346 204.118 353.677 206.449 356.553 206.449Z" fill="white"/>
</svg>
