<svg width="560" height="442" fill="none" xmlns="http://www.w3.org/2000/svg"><path d="M253.441 344.243c-9.987 1.824-56.824 11.701-47.399 35.576a21.508 21.508 0 0 0 6.3 8.493c11.759 9.864 53.9 34.01 175.977 20.841a235.28 235.28 0 0 1 20.808-1.333c32.167-.595 133.247-6.041 130.66-50.802 0 0-1.339-25.058-61.902-17.38l-46.061-2.866s-103.848-8.008-173.803 6.54c-1.507.342-3.04.653-4.58.931Z" fill="#E80505"/><path opacity=".7" d="M253.441 344.243c-9.987 1.824-56.824 11.701-47.399 35.576a21.508 21.508 0 0 0 6.3 8.493c11.759 9.864 53.9 34.01 175.977 20.841a235.28 235.28 0 0 1 20.808-1.333c32.167-.595 133.247-6.041 130.66-50.802 0 0-1.339-25.058-61.902-17.38l-46.061-2.866s-103.848-8.008-173.803 6.54c-1.507.342-3.04.653-4.58.931Z" fill="#fff"/><path d="M325.408 337.84c-209.457 19.722-238.79-105.22-238.79-105.22-16.036-43.422-2.232-71.799 17.89-98.758a196.225 196.225 0 0 1 76.178-61.126c48.447-22.031 81.733-26.52 81.733-26.52s140.285-36.074 213.415 72.607c0 0 69.858 87.678 24.282 143.04 0 0-22.729 30.621-82.555 53.616l-44.825 13.234a250.796 250.796 0 0 1-47.328 9.127Z" fill="#E80505"/><path opacity=".7" d="M325.408 337.84c-209.457 19.722-238.79-105.22-238.79-105.22-16.036-43.422-2.232-71.799 17.89-98.758a196.225 196.225 0 0 1 76.178-61.126c48.447-22.031 81.733-26.52 81.733-26.52s140.285-36.074 213.415 72.607c0 0 69.858 87.678 24.282 143.04 0 0-22.729 30.621-82.555 53.616l-44.825 13.234a250.796 250.796 0 0 1-47.328 9.127Z" fill="#fff"/><path d="M367.316 133.545H67.704v225.666h299.612V133.545Z" fill="#fff"/><path d="M367.316 133.545H70.136v22.91h297.18v-22.91Z" fill="#E6E6E6"/><path opacity=".29" d="M150.679 167.568H83.325v67.354h67.354v-67.354Z" fill="#E80505"/><path d="M465.221 239.082h-3.474v24.301h3.474v-24.301Z" fill="#999"/><path d="M430.071 286.016v72.613h4.942l2.846-76.236-7.788 3.623ZM460.355 271.721V347.4h4.949l2.691-79.153-7.64 3.474ZM432.231 280.789l42.012-18.79-18.965-3.293-21.895-9.392-1.152 31.475Z" fill="#CCC"/><path d="m424.411 288.648 49.806-23.176v-3.473l-41.986 18.79s-4.883 5.343-7.82 7.859Z" fill="#B3B3B3"/><path d="M448.551 175.899h26.223a2.944 2.944 0 0 1 2.943 2.943v43.577h-29.166v-46.52Z" fill="#999"/><path d="M366.973 28.694H156.236v90.265h210.737V28.693Z" fill="#E80505"/><path opacity=".3" d="M235.395 53.693h-65.272v42.355h65.272V53.693Z" fill="#fff"/><path d="M192.341 85.116a.69.69 0 0 1-.491-.207l-9.567-9.547a.697.697 0 0 1 0-.97l9.567-10.065a.693.693 0 1 1 1.009.951l-9.101 9.58 9.088 9.055a.688.688 0 0 1 .205.492.686.686 0 0 1-.205.492.702.702 0 0 1-.505.22ZM212.633 85.808a.686.686 0 0 1-.643-.425.678.678 0 0 1 0-.533.687.687 0 0 1 .151-.225l9.056-9.056-9.036-9.592a.688.688 0 0 1-.24-.512.707.707 0 0 1 .218-.522.699.699 0 0 1 1.031.076l9.56 10.065a.69.69 0 0 1 .149.748.69.69 0 0 1-.149.222l-9.56 9.554a.69.69 0 0 1-.537.2ZM197.646 85.116a.698.698 0 0 1-.647-1.009l9.276-18.227a.686.686 0 0 1 .41-.345.703.703 0 0 1 .747.218.691.691 0 0 1 .161.511.691.691 0 0 1-.077.263l-9.256 18.208a.692.692 0 0 1-.614.381Z" fill="#fff" opacity=".3"/><path d="M339.191 77.303h-45.129a.699.699 0 0 1 0-1.391h45.129a.704.704 0 0 1 .537.178.694.694 0 0 1 .229.517.69.69 0 0 1-.229.517.7.7 0 0 1-.537.179ZM349.612 85.634h-55.55a.7.7 0 0 1 0-1.39h55.55a.699.699 0 0 1 0 1.39Z" fill="#fff"/><path opacity=".3" d="M335.382 99.521H302.73a4.851 4.851 0 0 0-4.852 4.851v.712a4.851 4.851 0 0 0 4.852 4.851h32.652a4.851 4.851 0 0 0 4.851-4.851v-.712a4.851 4.851 0 0 0-4.851-4.85Z" fill="#fff"/><path opacity=".3" d="M366.967 28.694v90.265H156.236s35.414-38.228 93.473-47.866c2.652-.44 5.33-.724 8.008-.905 18.098-1.236 103.079-8.623 109.25-41.495Z" fill="#fff"/><path d="M141.656 82.852H20.142v138.176h121.514V82.852Z" fill="#E80505"/><path opacity=".3" d="M141.656 82.852H20.142v22.219h121.514V82.852Z" fill="#fff"/><path d="M67.361 112.018H29.864v37.497h37.497v-37.497Z" fill="#2F2E41"/><path opacity=".3" d="M106.585 96.397a2.432 2.432 0 1 0 0-4.864 2.432 2.432 0 0 0 0 4.864ZM119.088 96.397a2.432 2.432 0 1 0 0-4.864 2.432 2.432 0 0 0 0 4.864ZM131.585 96.397a2.432 2.432 0 1 0 0-4.864 2.432 2.432 0 0 0 0 4.864Z" fill="#fff"/><path d="M110.408 124.515H75.679a.688.688 0 0 1-.489-.203.686.686 0 0 1-.15-.754.701.701 0 0 1 .375-.375.706.706 0 0 1 .264-.052h34.716a.695.695 0 0 1 .692.692.692.692 0 0 1-.692.692h.013ZM120.472 132.846H76.035a.692.692 0 0 1 0-1.384h44.437a.699.699 0 0 1 .64.427.688.688 0 0 1 0 .53.694.694 0 0 1-.64.427ZM131.585 141.184h-55.55a.698.698 0 0 1 0-1.391h55.55a.698.698 0 0 1 0 1.391ZM108.668 185.64H54.515a.682.682 0 0 1-.537-.178.693.693 0 0 1-.229-.517.7.7 0 0 1 .766-.695h54.153a.7.7 0 0 1 .631.695.7.7 0 0 1-.631.695ZM126.029 193.952H37.154a.683.683 0 0 1-.537-.178.693.693 0 0 1-.169-.8.693.693 0 0 1 .419-.38.683.683 0 0 1 .287-.032h88.875a.683.683 0 0 1 .536.178.691.691 0 0 1 .17.8.697.697 0 0 1-.706.412ZM109.017 202.283H54.166a.683.683 0 0 1-.537-.178.693.693 0 0 1-.23-.517.698.698 0 0 1 .767-.695h54.851a.692.692 0 0 1 .706.412.705.705 0 0 1 0 .566.702.702 0 0 1-.706.412Z" fill="#fff"/><path opacity=".3" d="M104.851 160.621H54.166v10.414h50.685v-10.414Z" fill="#fff"/><path opacity=".29" d="M209.004 167.568h-43.046v11.112h43.046v-11.112Z" fill="#E80505"/><path d="M199.728 190.032h-33.771a.683.683 0 0 1-.536-.178.691.691 0 0 1-.17-.8.697.697 0 0 1 .706-.412h33.771a.687.687 0 0 1 .537.178.688.688 0 0 1 .229.517.688.688 0 0 1-.229.517.697.697 0 0 1-.537.178ZM210.737 198.364h-44.78a.692.692 0 0 1 0-1.385h44.78a.693.693 0 1 1 0 1.385ZM219.767 206.695h-53.81a.692.692 0 0 1 0-1.384h53.81a.688.688 0 0 1 .692.692.692.692 0 0 1-.692.692ZM245.459 215.032h-79.502a.683.683 0 0 1-.536-.178.691.691 0 0 1-.17-.8.697.697 0 0 1 .706-.412h79.502a.695.695 0 0 1 .632.695.699.699 0 0 1-.632.695Z" fill="#E6E6E6"/><path opacity=".29" d="M265.945 225.194h-99.987v9.722h99.987v-9.722Z" fill="#E80505"/><path d="M163.293 258.92H84.379a.698.698 0 0 1 0-1.391h78.914a.716.716 0 0 1 .287.032.711.711 0 0 1 .418.381.687.687 0 0 1 0 .565.702.702 0 0 1-.418.38.7.7 0 0 1-.287.033ZM228.448 258.92h-54.509a.698.698 0 0 1 0-1.391h54.509a.698.698 0 0 1 0 1.391ZM270.11 258.92h-19.101a.698.698 0 0 1 0-1.391h19.101a.698.698 0 0 1 0 1.391Z" fill="#E6E6E6"/><path opacity=".29" d="M169.431 256.488h-3.473v3.473h3.473v-3.473ZM236.779 256.488h-3.474v3.473h3.474v-3.473Z" fill="#E80505"/><path d="M245.11 256.488h-3.473v3.473h3.473v-3.473Z" fill="#CCC"/><path d="M144.431 277.594H84.735a.698.698 0 0 1 0-1.391h59.715a.696.696 0 0 1 .632.695.697.697 0 0 1-.632.696h-.019ZM187.478 294.547H84.023a.683.683 0 0 1-.536-.178.692.692 0 0 1-.23-.517.701.701 0 0 1 .48-.663.683.683 0 0 1 .287-.032h103.454a.683.683 0 0 1 .536.178c.072.065.13.145.17.234a.707.707 0 0 1 0 .566.705.705 0 0 1-.706.412ZM210.395 277.594h-45.453a.707.707 0 0 1-.706-.413.687.687 0 0 1 0-.565.702.702 0 0 1 .706-.413h45.478a.696.696 0 0 1 .632.696.696.696 0 0 1-.632.695h-.025ZM226.016 294.547H202.73a.698.698 0 0 1 0-1.391h23.286a.703.703 0 0 1 .45 1.165.698.698 0 0 1-.45.226Z" fill="#E6E6E6"/><path opacity=".29" d="M150.679 275.162h-3.473v3.473h3.473v-3.473Z" fill="#E80505"/><path d="M159.01 275.162h-3.473v3.473h3.473v-3.473Z" fill="#CCC"/><path opacity=".29" d="M191.65 292.115h-3.474v3.474h3.474v-3.474Z" fill="#E80505"/><path d="M199.981 292.115h-3.474v3.474h3.474v-3.474Z" fill="#CCC"/><path d="M229.832 331.779h-36.798a.698.698 0 0 1 0-1.391h36.798a.707.707 0 0 1 .706.413.687.687 0 0 1 0 .565.702.702 0 0 1-.706.413ZM269.081 331.779h-18.072a.698.698 0 0 1 0-1.391h18.072a.721.721 0 0 1 .288.032.711.711 0 0 1 .418.381.687.687 0 0 1 0 .565.702.702 0 0 1-.706.413Z" fill="#E6E6E6"/><path d="M237.478 329.347h-3.474v3.473h3.474v-3.473Z" fill="#CCC"/><path opacity=".29" d="M245.808 329.347h-3.473v3.473h3.473v-3.473Z" fill="#E80505"/><path d="M269.081 294.547h-26.054a.697.697 0 0 1 0-1.39h26.054a.687.687 0 0 1 .537.178.688.688 0 0 1 .229.517.692.692 0 0 1-.229.517.697.697 0 0 1-.537.178Z" fill="#E6E6E6"/><path d="M231.921 292.115h-3.474v3.474h3.474v-3.474Z" fill="#CCC"/><path opacity=".29" d="M240.252 292.115h-3.473v3.474h3.473v-3.474Z" fill="#E80505"/><path d="M132.6 313.713H84.735a.698.698 0 0 1 0-1.391H132.6a.696.696 0 0 1 .632.695.697.697 0 0 1-.632.696ZM226.016 313.713h-34.024a.698.698 0 0 1 0-1.391h34.024a.7.7 0 0 1 .631.695.701.701 0 0 1-.631.696ZM269.082 313.713h-34.036a.721.721 0 0 1-.288-.032.711.711 0 0 1-.418-.381.687.687 0 0 1 0-.565.702.702 0 0 1 .706-.413h34.036a.698.698 0 0 1 .765.696.702.702 0 0 1-.228.517.725.725 0 0 1-.25.146.714.714 0 0 1-.287.032Z" fill="#E6E6E6"/><path d="M137.49 311.294h-3.473v3.473h3.473v-3.473Z" fill="#CCC"/><path opacity=".29" d="M145.821 311.294h-3.473v3.473h3.473v-3.473Z" fill="#E80505"/><path d="M153.461 311.294h-3.474v3.473h3.474v-3.473Z" fill="#CCC"/><path d="M165.957 331.779H84.735a.698.698 0 0 1 0-1.391h81.242a.698.698 0 0 1 0 1.391h-.02Z" fill="#E6E6E6"/><path d="M170.815 329.347h-3.473v3.473h3.473v-3.473Z" fill="#CCC"/><path opacity=".29" d="M179.146 329.347h-3.473v3.473h3.473v-3.473Z" fill="#E80505"/><path d="M186.785 329.347h-3.473v3.473h3.473v-3.473Z" fill="#CCC"/><path opacity=".29" d="M161.792 311.294h-3.474v3.473h3.474v-3.473Z" fill="#E80505"/><path d="M171.514 311.294h-3.474v3.473h3.474v-3.473Z" fill="#CCC"/><path opacity=".29" d="M179.146 311.294h-3.473v3.473h3.473v-3.473Z" fill="#E80505"/><path d="M187.484 311.294h-3.474v3.473h3.474v-3.473Z" fill="#CCC"/><path d="M270.11 277.594h-38.544a.721.721 0 0 1-.288-.032.711.711 0 0 1-.418-.381.687.687 0 0 1 0-.565.702.702 0 0 1 .706-.413h38.538a.698.698 0 0 1 0 1.391h.006Z" fill="#E6E6E6"/><path opacity=".29" d="M217.335 275.162h-3.474v3.473h3.474v-3.473Z" fill="#E80505"/><path d="M225.673 275.162H222.2v3.473h3.473v-3.473Z" fill="#CCC"/><path d="M99.987 282.135H33.33v41.662h66.656v-41.662Z" fill="#E80505"/><path d="M57.245 313.946a.69.69 0 0 1-.48-.194l-10.025-9.593a.681.681 0 0 1-.159-.769.681.681 0 0 1 .16-.227l10.019-9.702a.689.689 0 0 1 .983 0 .696.696 0 0 1 0 .983l-9.509 9.217 9.502 9.095a.69.69 0 0 1 0 .983.714.714 0 0 1-.491.207ZM77.076 313.946a.695.695 0 0 1-.675-.837.687.687 0 0 1 .197-.353l9.502-9.224-9.502-9.095a.692.692 0 1 1 .957-1.002l10.026 9.592a.695.695 0 0 1 .213.498.703.703 0 0 1-.207.505l-10.026 9.702a.7.7 0 0 1-.485.214ZM62.497 312.684a.688.688 0 0 1-.692-.755.696.696 0 0 1 .077-.26l9.056-17.355a.691.691 0 0 1 .409-.374.704.704 0 0 1 .553.041.696.696 0 0 1 .273.98l-9.055 17.355a.684.684 0 0 1-.621.368Z" fill="#fff" opacity=".3"/><path d="M288.855 237.697h-7.639V372.4h7.639V237.697Z" fill="#999"/><path opacity=".1" d="M288.855 237.697h-3.473V372.4h3.473V237.697Z" fill="#000"/><path d="M312.464 238.04h-7.639v111.442h7.639V238.04Z" fill="#999"/><path opacity=".1" d="M312.464 238.04h-3.473v111.442h3.473V238.04Z" fill="#000"/><path d="M479.108 237.697h-7.639V372.4h7.639V237.697Z" fill="#999"/><path opacity=".1" d="M479.107 237.697h-3.473V372.4h3.473V237.697Z" fill="#000"/><path d="M498.551 229.017h-7.639v120.472h7.639V229.017Z" fill="#999"/><path opacity=".1" d="M498.551 229.017h-3.473v120.472h3.473V229.017Z" fill="#000"/><path d="M445.084 175.899h26.217a2.944 2.944 0 0 1 2.943 2.943v43.577h-29.16v-46.52Z" fill="#B3B3B3"/><path d="m272.885 235.615 35.828-18.041h200.265l-23.622 18.041H272.885Z" fill="#CCC"/><path d="m350.653 361.986-21.022 16.442s-8.803 7.859-1.196 12.717c0 0 11.106 6.947 20.135-4.858l12.529-20.465-10.446-3.836Z" fill="#E80505"/><path opacity=".2" d="M327.044 385.589c5.175 5.614 13.312 4.443 18.402-.647 2.394-2.452 4.528-5.388 6.805-7.956 1.992-2.342 4.858-5.686 6.889-7.943-1.811 2.419-4.567 5.879-6.469 8.286-2.205 2.665-4.353 5.595-6.74 8.111-5.31 5.246-13.874 6.391-18.881.168l-.006-.019Z" fill="#000"/><path opacity=".2" d="M331.384 377.581c4.172-.058 8.609 1.565 11.222 4.935a10.105 10.105 0 0 1 1.805 3.778c-.168-.304-.33-.647-.479-.925a5.446 5.446 0 0 0-.524-.886c-2.587-4.133-7.399-6.08-12.024-6.902ZM336.067 375.162c3.125-.421 7.581.601 8.345 4.139-1.695-2.981-5.24-3.499-8.345-4.139ZM338.849 372.4c3.117-.421 7.58.601 8.337 4.133-1.688-2.975-5.239-3.493-8.337-4.133ZM344.405 368.234c3.118-.42 7.581.602 8.338 4.133-1.688-2.982-5.239-3.493-8.338-4.133Z" fill="#000"/><path d="m355.861 351.915-5.175 10.071s-2.147 2.587.809 4.191a5.5 5.5 0 0 0 2.626.647h5.11a2.338 2.338 0 0 0 1.901-.977l6.268-8.842s-8.79-3.383-11.539-5.09ZM354.67 330.032l2.277 6.876 3.454-9.832-5.731 2.956Z" fill="#F9B499"/><path d="M459.748 215.006c0 5.33-3.558 5.33-3.558 5.33l-9.702 3.474c-4.321 1.442-6.106 1.222-6.792.944a1.047 1.047 0 0 0-.88.065.178.178 0 0 1-.051.039 7.6 7.6 0 0 1-2.471 1.132c-1.87.375-1.604-1.495-1.604-1.495.063-.329.106-.661.129-.996a6.408 6.408 0 0 0-3.752-6.061 17.17 17.17 0 0 0-3.085-1.086 4.119 4.119 0 0 0-1.986 0l-5.388 1.235h-27.083l-24.832-.724a63.549 63.549 0 0 1 8.138-42.355 55.74 55.74 0 0 1 5.705-8.066c.465-.543.737-.821.737-.821l1.533-2.219s20.699 1.384 20.938.692c.239-.692 14.327-9.055 14.327-9.055l19.897 8.408c.883.39 1.674.961 2.322 1.676 4.282 4.431 7.639 14.987 7.639 14.987l9.056 29.858c.468 1.64.725 3.333.763 5.038Z" fill="#E80505"/><path d="M437.128 197.283s-19.883 3.234-34.767.143a16.987 16.987 0 0 1-1.132-.279 57.513 57.513 0 0 0-17.943-1.804l-14.269-.117-.705 4.722h23.849s7.762.252 14.036 2.335c0 0 6.248 2.083 18.758.692l14.114-1.72-1.941-3.972Z" fill="#2F2E41"/><path opacity=".2" d="M442.303 165.078c-13.189 1.681-36.799 9.43-36.799 9.43-5.556-4.165-22.956-8.066-22.956-8.066.466-.543.738-.821.738-.821l1.533-2.219s20.698 1.384 20.938.692c.239-.692 14.327-9.055 14.327-9.055l19.896 8.408c.879.376 1.67.932 2.323 1.631Z" fill="#000"/><path d="M401.099 164.502c-.264.07-.532.126-.802.168-4.696.828-9.54-1.209-13.415-5.174a27.818 27.818 0 0 1-6.94-12.846c-2.969-12.019 1.701-23.5 10.426-25.654 8.726-2.154 18.196 5.822 21.165 17.846 2.969 12.025-1.701 23.513-10.434 25.66Z" fill="#F9B499"/><path d="M413.493 141.184c.575 0 1.041-.933 1.041-2.083 0-1.15-.466-2.083-1.041-2.083s-1.041.933-1.041 2.083c0 1.15.466 2.083 1.041 2.083Z" stroke="red" stroke-width=".485" stroke-miterlimit="10"/><path d="M421.475 136.32s11.112 6.112-6.941 11.733c-.21-.77-.327-1.563-.349-2.361-.026-.99.091-1.98.349-2.936l-5.556-2.821s-3.021.55-4.638-2.923c0 0-5.776 0-5.084-4.166 0 0-4.165 2.781-5.556-.692 0 0-6.268 4.45-12.503-2.988 0 0-2.769 5.071-1.941 13.583 0 0-4.101 3.286-6.423.246a4.294 4.294 0 0 1-.828-2.439 3.603 3.603 0 0 1 .486-2.101 3.605 3.605 0 0 1 1.597-1.45s-5.026-1.869-4.89-6.002a6.593 6.593 0 0 1 .912-3.021s1.041-2.587 4.935-1.494c.691.208 1.362.477 2.006.802 0 0-5.311-11.164 2.199-18.428 0 0 12.38-12.82 17.244 3.15 0 0 4.237-6.559 10.996-4.929.496.118.983.274 1.456.466 0 0 4.857 1.293 4.165 9.12 0 0 6.249-5.356 11.805.892 0 0 4.166 5.104 0 10.531.052.013 2.115 4.754-3.441 8.228Z" fill="#2F2E41"/><path opacity=".2" d="M381.895 127.814s-2.083-6.766 4.165-10.938c0 0 4.483-2.917 10.667.944.62.404 1.21.851 1.765 1.339a10.64 10.64 0 0 0 6.85 2.659s7.116-.304 8.15 7.761c0 0-7.988-6.934-13.887-3.583 0 0-3.124-9.845-11.462-7.07 0 .033-4.858 1.423-6.248 8.888ZM375.026 126.494c-3.383.602-5.822 4.528-5.822 4.528a6.596 6.596 0 0 1 .912-3.021s1.016-2.619 4.91-1.507Z" fill="#000"/><path opacity=".2" d="M421.475 136.32s11.113 6.112-6.94 11.733a4.71 4.71 0 0 1 0-3.7l2.774-4.418c2.083-1.248 2.083-4.308 2.083-4.308a6.749 6.749 0 0 0 2.995-2.348 5.65 5.65 0 0 0 .705-5.329c-1.442-3.674-5.783-2.646-5.783-2.646 1.391-10.349-4.864-7.018-4.864-7.018-.647-9.392-4.67-11.093-4.922-11.19.496.118.983.274 1.455.465 0 0 4.858 1.294 4.166 9.121 0 0 6.248-5.356 11.805.892 0 0 4.165 5.104 0 10.531.019 0 2.082 4.741-3.474 8.215Z" fill="#000"/><path d="m426.332 156.455-17.354 14.729c-2.782 2.231-4.166.55-4.166.55l-.769-1.21-3.746-5.821c13.196-3.008 12.077-20.317 12.077-20.317h2.16a11.403 11.403 0 0 0 1.384 7.244c2.529-1.015 5.822-.918 7.374-.795a9.57 9.57 0 0 1 1.87.316c5.582 1.501 1.17 5.304 1.17 5.304Z" fill="#F9B499"/><path d="m426.333 156.455-17.355 14.729c-2.781 2.231-4.165.55-4.165.55l-.77-1.21c7.561-3.292 14.877-12.18 14.877-12.18 2.626-3.881-1.708-6.164-2.755-6.649a.11.11 0 0 1-.044-.039.096.096 0 0 1-.016-.055.101.101 0 0 1 .06-.094c2.496-.918 5.614-.821 7.115-.705.632.044 1.258.15 1.869.317 5.595 1.533 1.184 5.336 1.184 5.336Z" fill="#F7A48B"/><path d="m400.297 164.67 1.986 3.111s12.07-6.811 9.703-17.05c.045-.019-.925 11.74-11.689 13.939Z" fill="#F7A48B"/><path d="M387.451 164.094a35.952 35.952 0 0 1 12.154 4.211" stroke="red" stroke-width=".485" stroke-miterlimit="10"/><path opacity=".2" d="M459.748 215.007c0 5.329-3.557 5.329-3.557 5.329l-9.703 3.474c-4.321 1.442-6.106 1.222-6.792.944a1.046 1.046 0 0 0-.879.065c.233-.155 1.086-.944-.052-3.234l-3.642-5.446a.737.737 0 0 1 .253-1.035.732.732 0 0 1 .944.207l4.618 6.423s.692 2.775 9.703-1.391c0-.007 7.801-3.008 9.107-5.336ZM436.274 225.99c-1.869.375-1.604-1.494-1.604-1.494.063-.33.107-.662.129-.997a6.407 6.407 0 0 0-3.751-6.06 17.134 17.134 0 0 0-3.086-1.087s5.317-2.27 8.092 4.67c0 .007.854 3.008.22 4.968ZM438.137 209.224s-9.055 3.81-12.16 7.115l-5.388 1.235h-27.064l-24.832-.711a63.549 63.549 0 0 1 8.138-42.355c.194 0 5.75 1.391 11.3 20.835 0 0 5.517 20.576 14.23 19.663h15.201s13.635.473 13.635-8.557v-13.888s.42-5.446 2.645-2.024l7.077 14.508s1.384 2.795-2.782 4.179ZM440.22 166.882c-5.446 4.341-8.26 11.178-8.331 18.053-.064-.86-.174-1.733-.161-2.587 0-6.113 3.163-12.322 8.492-15.453v-.013Z" fill="#000"/><path d="M414.534 209.573a.347.347 0 0 1-.336-.356l.692-20.834c0-13.771 3.46-23.616 3.493-23.713a.351.351 0 0 1 .446-.207.336.336 0 0 1 .195.177.345.345 0 0 1 .012.263c0 .097-3.447 9.832-3.447 23.493l-.699 20.841a.351.351 0 0 1-.356.336ZM397.154 211.656a.351.351 0 0 1-.336-.356l.699-20.136a134.645 134.645 0 0 1 1.739-21.927.352.352 0 0 1 .143-.223.345.345 0 0 1 .482.091.35.35 0 0 1 .055.261 134.73 134.73 0 0 0-1.727 21.805l-.692 20.149a.355.355 0 0 1-.363.336Z" fill="#2F2E41"/><g opacity=".2" fill="#000"><path d="M414.535 209.573a.352.352 0 0 1-.337-.356l.692-20.834c0-13.771 3.461-23.616 3.493-23.713a.35.35 0 0 1 .642-.03.345.345 0 0 1 .012.263c0 .097-3.448 9.832-3.448 23.493l-.699 20.841a.347.347 0 0 1-.355.336ZM397.154 211.656a.351.351 0 0 1-.336-.356l.699-20.136a134.645 134.645 0 0 1 1.739-21.927.352.352 0 0 1 .143-.223.345.345 0 0 1 .482.091.35.35 0 0 1 .055.261 134.73 134.73 0 0 0-1.727 21.805l-.692 20.149a.355.355 0 0 1-.363.336Z"/></g><path d="M456.882 240.472c0 .11 0 5.666-1.384 16.663l-.22 1.571a37.942 37.942 0 0 0-.337 4.703c-.038 2.484-1.656 7.212-13.777 5.31.317-.537.608-1.067.88-1.61l.226-.44c1.015-1.941 2.387-4.903 2.814-7.452 0 0-38.163-3.467-50.692-8.331 0 0-18.306-7.639-25.123-5.207l-5.427 4.528s-4.858-1.391 2.083-9.702l90.957-.033Z" fill="#E80505"/><path opacity=".2" d="M445.085 259.217s8.926.595 8.596 4.528a2.59 2.59 0 0 1-1.041 1.844c-1.19.912-4.043 2.128-10.447 1.222a40.718 40.718 0 0 0 2.892-7.594ZM364.903 249.314s-4.094-2.587 4.366-3.635l-4.366 3.635Z" fill="#000"/><path d="M445.084 259.217a34.812 34.812 0 0 1-2.814 7.452l-.226.44c-.149.278-.285.524-.407.744-.123.22-.304.575-.473.866-8.602 15.149-26.882 28.746-34.32 33.875a7.866 7.866 0 0 0-2.388 2.591 7.87 7.87 0 0 0-1.021 3.373c-1.54 23.829-12.51 44.398-12.51 44.398-2.335 3.344-5.821 4.955-9.702 5.472-12.355 1.669-29.185-7.555-29.185-7.555l9.055-25.692c7.639-28.46 15.272-36.798 15.272-36.798l17.167-35.653.886-1.844c12.477 4.864 50.666 8.331 50.666 8.331Z" fill="#2F2E41"/><path opacity=".2" d="M445.084 259.217a34.862 34.862 0 0 1-2.813 7.452l-.227.44c-.149.278-.284.524-.407.744-.123.22-.304.575-.473.866-8.602 15.149-26.882 28.746-34.32 33.875a7.866 7.866 0 0 0-2.388 2.591 7.87 7.87 0 0 0-1.021 3.373c-1.54 23.829-12.51 44.398-12.51 44.398-2.335 3.344-5.821 4.955-9.702 5.472 12.936-16.636 20.226-53.687 20.226-53.687-.576-8.622 24.884-30.957 24.884-30.957 9.702-9.702-2.775-12.503-2.775-12.503-11.171-1.76-25.822-7.012-30.052-8.571l.886-1.843c12.503 4.883 50.692 8.35 50.692 8.35Z" fill="#000"/><path d="m381.223 278.247-21.546 8.745 8.409 16.818s-3.584 10.472-7.374 23.131c0 0-8.681 5.899-17.704 5.207 0 0-7.639-19.444-11.805-39.58 0 0-5.556-11.805 4.166-19.444l28.15-22.768 5.776-4.677s4.295-3.124 25.123 5.207l-13.195 27.361Z" fill="#2F2E41"/><path d="m354.218 344.683-13.759 10.621a17.79 17.79 0 0 1-4.404 2.542c-2.077.809-5.078 2.587-4.425 5.932a5.464 5.464 0 0 0 3.28 3.939c1.649.685 4.262 1.151 8.104.239l7.639-5.97 4.832-9.405-3.447-1.708 2.18-6.19Z" fill="#E80505"/><path opacity=".2" d="m354.218 344.683-13.759 10.621a17.79 17.79 0 0 1-4.404 2.542c-2.077.809-5.078 2.587-4.425 5.932a5.464 5.464 0 0 0 3.28 3.939c1.649.685 4.262 1.151 8.104.239l7.639-5.97 4.832-9.405-3.447-1.708 2.18-6.19ZM381.223 278.247l-21.546 8.745 8.408 16.818a239.636 239.636 0 0 1-7.69 23.286s-8.364 5.744-17.387 5.052c25.692-2.083 13.441-43.48 13.441-43.48-2.833-6.326 1.417-8.183 3.997-8.72a34.762 34.762 0 0 0 4.852-1.371l6.507-2.393a19.099 19.099 0 0 0 10.938-10.046 17.595 17.595 0 0 0 1.442-5.375 9.214 9.214 0 0 0-6.662-9.702c-5.447-1.604-10.906-1.19-14.037-.712l5.777-4.676s4.295-3.124 25.123 5.207l-13.163 27.367Z" fill="#000"/><path opacity=".2" d="M331.54 362.872c5.174 2.904 11.539 2.535 16.817.162.77-.33 1.507-.738 2.29-1.074a53.19 53.19 0 0 1-2.134 1.378c-5.175 2.93-12.148 3.298-16.98-.466h.007Z" fill="#000"/><path opacity=".2" d="M339.36 356.093c2.678 1.19 7.878 4.425 7.826 7.698-.465-1.818-2.134-2.969-3.46-4.179-1.326-1.21-2.911-2.309-4.366-3.519ZM343.014 353.331c2.005.285 3.571 2.096 4.172 3.946-1.442-1.326-2.587-2.762-4.172-3.946ZM345.615 351.32a6.172 6.172 0 0 1 4.282 3.984c-1.404-1.416-2.814-2.587-4.282-3.984ZM348.57 349.036a7.638 7.638 0 0 1 3.467 4.276 18.974 18.974 0 0 1-3.467-4.276Z" fill="#000"/><path d="M485.356 235.615H272.885v4.857h212.471v-4.857Z" fill="#B3B3B3"/><path d="M485.355 235.615v4.857l23.61-18.745.013-4.153-23.623 18.041Z" fill="#999"/><path d="M328.435 223.111h63.435l-4.741-41.229a3.634 3.634 0 0 0-3.603-3.234h-58.215a1.953 1.953 0 0 0-1.418.654 1.938 1.938 0 0 0-.395.693c-.082.256-.11.527-.082.794l5.019 42.322Z" fill="#E80505"/><path opacity=".3" d="M391.87 223.111h-63.435l-5.019-42.296a1.94 1.94 0 0 1 1.908-2.141h58.215a3.627 3.627 0 0 1 3.596 3.234l4.735 41.203Z" fill="#fff"/><path opacity=".3" d="m377.445 178.674-49.011 42.355-1.06-8.196 39.715-34.159h10.356ZM334.457 223.111l51.455-43.538a3.875 3.875 0 0 1 1.216 2.309l.246 2.161-45.983 39.068h-6.934Z" fill="#fff"/><path d="M389.535 223.111h-61.1v4.166h61.1v-4.166Z" fill="#E80505"/><path d="M408.609 223.111h-19.075v4.166h19.075v-4.166Z" fill="#E80505"/><path opacity=".2" d="M408.609 223.111h-19.075v4.166h19.075v-4.166Z" fill="#000"/><path d="M271.494 228.667h30.175l21.727-12.664h-25.951l-25.951 12.664Z" fill="#fff"/><path d="M301.669 228.667h-30.175v3.008h30.175v-3.008Z" fill="#E6E6E6"/><path d="M323.395 216.003v3.79l-21.727 11.882v-3.007l21.727-12.665Z" fill="#CCC"/><path opacity=".1" d="M323.395 216.003v3.79l-21.727 11.882v-3.007l21.727-12.665Z" fill="#000"/><path d="M425.977 216.339s-8.713 1.21-13.551 7.814c0 0-6.501 5.918-.116 4.87 0 0 .304 3.028 5.426.99 0 0 .887 2.141 6.469-.99 0 0 5.588-3.13 10.452-4.527.013.006 2.064-7.995-8.68-8.157Z" fill="#F9B499"/><path d="M417.853 222.419a25.952 25.952 0 0 1-5.531 6.604 26.2 26.2 0 0 1 5.531-6.604ZM417.736 230.013a15.912 15.912 0 0 1 4.431-5.058 15.98 15.98 0 0 1-4.431 5.058Z" fill="#F7A48B"/><path d="M413.144 144.651c2.301 0 4.166-2.332 4.166-5.207 0-2.876-1.865-5.207-4.166-5.207s-4.165 2.331-4.165 5.207c0 2.875 1.864 5.207 4.165 5.207Z" fill="#F9B499"/><path d="M414.535 148.053s7.891-3.189 15.679-2.406a17.184 17.184 0 0 1 11.21 5.931c3.137 3.623 7.464 9.767 2.833 11.837a5.555 5.555 0 0 1-4.716-.213c-3.234-1.611-11.584-4.47-30.912 8.182l17.704-14.929s4.198-4.191-2.264-5.517a8.76 8.76 0 0 0-1.694-.162c-2.18.038-4.349.313-6.469.822 0 0-1.371-2.225-1.371-3.545Z" fill="#E80505"/><path opacity=".3" d="M414.535 148.053s7.891-3.189 15.679-2.406a17.184 17.184 0 0 1 11.21 5.931c3.137 3.623 7.464 9.767 2.833 11.837a5.555 5.555 0 0 1-4.716-.213c-3.234-1.611-11.584-4.47-30.912 8.182l17.704-14.929s4.198-4.191-2.264-5.517a8.76 8.76 0 0 0-1.694-.162c-2.18.038-4.349.313-6.469.822 0 0-1.371-2.225-1.371-3.545Z" fill="#fff"/><path opacity=".3" d="M436.055 151.598c-3.707 4.495-8.72 7.8-13.745 10.666-.744.375-1.475.776-2.226 1.138 5.408-3.829 10.997-7.38 15.971-11.804ZM442.303 154.373c-3.105 3.454-7.73 5.291-12.232 6.041 4.185-1.662 8.577-3.389 12.232-6.048v.007Z" fill="#fff"/><path d="M404.813 171.734c-2.872-1.727-13.817-4.399-17.516-5.272a15.283 15.283 0 0 0-2.18-.323c-3.111-.292-2.523-2.044-2.523-2.044 0-2.775 4.289-4.586 4.289-4.586 3.881 3.952 8.719 5.989 13.415 5.174l4.515 7.051Z" fill="#E80505"/><path opacity=".3" d="M404.813 171.734c-2.872-1.727-13.817-4.399-17.516-5.272a15.283 15.283 0 0 0-2.18-.323c-3.111-.292-2.523-2.044-2.523-2.044 0-2.775 4.289-4.586 4.289-4.586 3.881 3.952 8.719 5.989 13.415 5.174l4.515 7.051Z" fill="#fff"/><path d="M356.553 206.449a5.207 5.207 0 1 0 0-10.415 5.207 5.207 0 0 0 0 10.415Z" fill="#fff"/></svg>